<?xml version="1.0" encoding="UTF-8" standalone="no"?>
<!DOCTYPE svg  PUBLIC '-//W3C//DTD SVG 1.1//EN'  'http://www.w3.org/Graphics/SVG/1.1/DTD/svg11.dtd'>
<svg xmlns="http://www.w3.org/2000/svg">
<defs>
<font id="DINOT-CondBold" horiz-adv-x="401">
<font-face underline-position="-38" font-weight="700" descent="-200" panose-1="2 11 8 6 2 1 1 1 1 2" units-per-em="1000" unicode-range="U+0020-25CA" font-stretch="condensed" bbox="-70 -194 1003 962" x-height="527" underline-thickness="77" font-family="DINOT" ascent="800" cap-height="712"/>
<missing-glyph horiz-adv-x="1000"/>
<glyph glyph-name=".notdef" horiz-adv-x="1000"/>
<glyph glyph-name=".null" horiz-adv-x="0"/>
<glyph glyph-name=".null" horiz-adv-x="0"/>
<glyph glyph-name="nonmarkingreturn" horiz-adv-x="333"/>
<glyph glyph-name="space" horiz-adv-x="179" unicode=" "/>
<glyph glyph-name="exclam" horiz-adv-x="257" unicode="!" d="M202 0h-124v123h124v-123zM193 200h-106v512h106v-512z"/>
<glyph glyph-name="quotedbl" horiz-adv-x="437" unicode='&quot;' d="M364 511h-101v201h101v-201zM174 511h-102v201h102v-201z"/>
<glyph glyph-name="numbersign" horiz-adv-x="608" unicode="#" d="M367 428h-107l-19 -127h107zM561 428h-84l-18 -127h71v-100h-87l-29 -201h-111l29 201h-107l-29 -201h-110l29 201h-68v100h84l18 127h-71v101h87l26 183h111l-27 -183h107l27 183h110l-26 -183h68v-101z"/>
<glyph glyph-name="dollar" horiz-adv-x="449" unicode="$" d="M407 197q0 -112 -46 -157q-32 -32 -88 -42v-112h-99v111q-57 9 -91 43q-45 45 -45 153h112q0 -57 20 -80q17 -19 52 -19q36 0 53 20q20 23 20 79q0 57 -12.5 78.5t-54.5 38.5l-85 35q-55 23 -77 60.5t-22 118.5q0 99 58 151q31 28 72 37v94h99v-93q48 -9 79 -38 q50 -49 50 -155h-112q0 54 -17 76q-16 21 -50 21q-30 0 -48 -20q-19 -22 -19 -70q0 -44 11 -62.5t48 -33.5l84 -34q64 -26 86 -67.5t22 -132.5z"/>
<glyph glyph-name="percent" horiz-adv-x="732" unicode="%" d="M598 114v129q0 45 -40 45t-40 -45v-129q0 -45 40 -45t40 45zM214 469v129q0 45 -40 45q-41 0 -41 -45v-129q0 -45 41 -45q40 0 40 45zM532 712l-248 -712h-82l248 712h82zM301 467q0 -57 -36.5 -88.5t-90.5 -31.5t-90.5 31.5t-36.5 88.5v133q0 57 36.5 88.5t90.5 31.5 t90.5 -31.5t36.5 -88.5v-133zM685 112q0 -57 -36.5 -88.5t-90.5 -31.5t-90.5 31.5t-36.5 88.5v133q0 57 36.5 88.5t90.5 31.5t90.5 -31.5t36.5 -88.5v-133z"/>
<glyph glyph-name="ampersand" horiz-adv-x="499" unicode="&amp;" d="M256 568q0 25 -13.5 40.5t-34.5 15.5q-22 0 -35 -16t-13 -44q0 -42 47 -105q26 29 37.5 52t11.5 57zM295 144l-103 160q-59 -60 -59 -122q0 -42 21.5 -68.5t55.5 -26.5q45 0 85 57zM497 0h-111l-39 63q-63 -71 -146 -71q-74 0 -120.5 49.5t-46.5 133.5q0 107 106 215 q-39 52 -57 90t-18 80q0 76 40 117.5t102 41.5q70 0 107 -41.5t37 -107.5q0 -59 -22.5 -103.5t-68.5 -92.5l85 -131q24 51 29 131h91q-5 -125 -61 -225z"/>
<glyph glyph-name="quotesingle" horiz-adv-x="247" unicode="&apos;" d="M174 511h-102v201h102v-201z"/>
<glyph glyph-name="parenleft" horiz-adv-x="265" unicode="(" d="M224 -23l-71 -71q-61 61 -81 96q-24 42 -24 118v472q0 76 24 118q21 36 81 96l71 -71q-42 -42 -56 -67t-14 -82v-460q0 -57 14 -82t56 -67z"/>
<glyph glyph-name="parenright" horiz-adv-x="265" unicode=")" d="M218 120q0 -74 -25 -118q-17 -31 -80 -96l-72 71q42 42 56 67q15 27 15 82v460q0 53 -15 82q-13 24 -56 67l72 71q63 -65 80 -96q25 -44 25 -118v-472z"/>
<glyph glyph-name="asterisk" horiz-adv-x="417" unicode="*" d="M374 479l-38 -65l-93 58l4 -126h-77l4 126l-94 -58l-37 65l98 51l-98 51l37 66l94 -59l-4 126h77l-4 -126l93 59l38 -66l-98 -51z"/>
<glyph glyph-name="plus" horiz-adv-x="457" unicode="+" d="M413 238h-134v-134h-101v134h-134v101h134v134h101v-134h134v-101z"/>
<glyph glyph-name="comma" horiz-adv-x="229" unicode="," d="M172 -65l-115 -85v274h115v-189z"/>
<glyph glyph-name="hyphen" horiz-adv-x="295" unicode="-" d="M249 238h-202v101h202v-101z"/>
<glyph glyph-name="period" horiz-adv-x="234" unicode="." d="M179 0h-123v123h123v-123z"/>
<glyph glyph-name="slash" horiz-adv-x="298" unicode="/" d="M291 786l-185 -860h-100l185 860h100z"/>
<glyph glyph-name="zero" d="M253 148v416q0 30 -14.5 45.5t-37.5 15.5t-38 -16t-15 -45v-416q0 -29 15 -45t38 -16t37.5 15.5t14.5 45.5zM359 152q0 -75 -45 -118q-44 -42 -113 -42q-70 0 -114 42q-45 43 -45 118v408q0 75 45 118q44 42 114 42q69 0 113 -42q45 -43 45 -118v-408z" unicode="0"/>
<glyph glyph-name="one" d="M283 0h-106v588l-107 -82v120l107 86h106v-712z" unicode="1"/>
<glyph glyph-name="two" d="M360 0h-313v90l178 346q29 54 29 127q0 30 -14 46t-37 16t-38 -16t-15 -45v-46h-106v42q0 76 44 118t115 42q69 0 110 -38q47 -44 47 -123q0 -81 -39 -156l-161 -308h200v-95z" unicode="2"/>
<glyph glyph-name="three" d="M361 203q0 -70 -8.5 -105.5t-38.5 -64.5q-44 -41 -114 -41q-73 0 -115 42q-44 42 -44 118v42h106v-46q0 -30 14.5 -45.5t38.5 -15.5t37 17q18 21 18 99q0 91 -16 111q-13 18 -40 18h-35v89h35q22 0 34 14q16 19 16 90q0 66 -14 84q-13 16 -35 16t-35 -14.5t-13 -42.5v-50 h-106v43q0 74 44 118q41 41 110 41t109 -40q46 -45 46 -148q0 -78 -18 -113q-15 -28 -39 -42q30 -21 41 -43q22 -37 22 -131z" unicode="3"/>
<glyph glyph-name="four" d="M377 111h-49v-111h-106v111h-198v95l183 506h103l-177 -506h89v127h106v-127h49v-95z" unicode="4"/>
<glyph glyph-name="five" d="M362 231q0 -80 -8 -121t-40 -74q-42 -44 -113 -44t-114 41q-45 42 -45 119v35h106v-37q0 -31 14.5 -47t38.5 -16t38 18q17 23 17 126t-14 125q-15 22 -41 22q-23 0 -38 -16t-15 -45v-15h-101v410h307v-95h-210v-191q14 20 37 34q22 13 51 13q62 0 96 -43q19 -23 26.5 -65 t7.5 -134z" unicode="5"/>
<glyph glyph-name="six" d="M255 218q0 93 -16 113q-13 18 -38 18t-39 -18q-16 -20 -16 -113t16 -113q14 -18 39 -18t38 18q16 20 16 113zM361 216q0 -118 -34 -167q-40 -57 -127 -57q-85 0 -125 57q-20 30 -27.5 66t-7.5 101q0 94 29 168l125 328h110l-117 -288q16 12 44 12q60 0 94 -44 q20 -26 28 -62.5t8 -113.5z" unicode="6"/>
<glyph glyph-name="seven" d="M365 624l-187 -624h-106l187 617h-124v-95h-102v190h332v-88z" unicode="7"/>
<glyph glyph-name="eight" d="M250 521q0 74 -17 92q-12 12 -32 12q-21 0 -33 -12q-17 -18 -17 -92q0 -73 18 -92q12 -12 32 -12t32 12q17 18 17 92zM255 207q0 83 -16 104q-14 17 -38 17q-25 0 -39 -17q-16 -21 -16 -104q0 -82 16 -103q14 -17 39 -17q24 0 38 17q16 21 16 103zM361 201 q0 -65 -9 -101.5t-38 -65.5q-42 -42 -113 -42q-70 0 -114 42q-29 29 -38 65.5t-9 101.5q0 88 21 126q14 24 42 45q-26 20 -39 44q-19 39 -19 111q0 106 46 152q41 41 109 41q70 0 110 -41q46 -46 46 -152q0 -72 -19 -111q-13 -24 -39 -44q28 -21 42 -45q21 -38 21 -126z" unicode="8"/>
<glyph glyph-name="nine" d="M255 494q0 93 -16 113q-13 18 -38 18t-39 -18q-16 -20 -16 -113t16 -113q14 -18 39 -18t38 18q16 20 16 113zM361 496q0 -94 -29 -168l-125 -328h-110l117 288q-16 -12 -43 -12q-60 0 -95 44q-20 26 -28 62.5t-8 113.5q0 68 8 103.5t27 63.5q40 57 126 57q85 0 125 -57 q20 -30 27.5 -66t7.5 -101z" unicode="9"/>
<glyph glyph-name="colon" horiz-adv-x="257" unicode=":" d="M202 0h-124v123h124v-123zM202 313h-124v123h124v-123z"/>
<glyph glyph-name="semicolon" horiz-adv-x="257" unicode=";" d="M202 313h-124v123h124v-123zM198 -65l-116 -85v274h116v-189z"/>
<glyph glyph-name="less" d="M367 60l-333 195v74l333 194v-116l-203 -115l203 -115v-117z" unicode="&lt;"/>
<glyph glyph-name="equal" horiz-adv-x="457" unicode="=" d="M413 145h-369v101h369v-101zM413 326h-369v101h369v-101z"/>
<glyph glyph-name="greater" d="M367 255l-333 -195v117l203 115l-203 115v116l333 -194v-74z" unicode="&gt;"/>
<glyph glyph-name="question" horiz-adv-x="426" unicode="?" d="M286 0h-124v123h124v-123zM393 524q0 -78 -34 -123l-59 -79q-23 -31 -23 -65v-57h-106v69q0 45 31 86l59 79q26 34 26 93q0 55 -20 77q-17 19 -43 19t-43 -18q-19 -21 -19 -78h-106q0 100 47 144q51 47 120 47q79 0 122 -45q48 -48 48 -149z"/>
<glyph glyph-name="at" horiz-adv-x="608" unicode="@" d="M448 148v186q0 30 -14.5 46t-37.5 16t-37.5 -16t-14.5 -46v-186q0 -30 14.5 -45.5t37.5 -15.5t37.5 15.5t14.5 45.5zM554 0h-102v40q-18 -24 -35 -33q-25 -15 -54 -15q-60 0 -95 41q-30 34 -30 114v188q0 80 30 114q35 41 95 41q29 0 54 -14q19 -10 31 -27v83 q0 89 -83 89h-130q-82 0 -82 -89v-396q0 -45 29 -73l-77 -76q-32 31 -45 62.5t-13 81.5v417q0 77 46 121q43 43 118 43h178q75 0 118 -43q47 -45 47 -121v-548z"/>
<glyph glyph-name="A" horiz-adv-x="468" unicode="A" d="M295 242l-61 298l-61 -298h122zM462 0h-117l-29 141h-165l-28 -141h-118l175 712h109z"/>
<glyph glyph-name="B" horiz-adv-x="472" unicode="B" d="M309 515q0 52 -18.5 74t-62.5 22h-56v-193h56q43 0 62 23t19 74zM311 212q0 59 -20 85t-65 26h-54v-222h54q46 0 65.5 25t19.5 86zM423 204q0 -63 -10 -98t-36 -61q-45 -45 -140 -45h-177v712h178q95 0 138 -44q25 -25 35 -57t10 -89q0 -82 -41 -124q-17 -17 -37 -25 q24 -11 39 -26q41 -42 41 -143z"/>
<glyph glyph-name="C" horiz-adv-x="447" unicode="C" d="M413 189q-3 -101 -59 -152q-48 -45 -123 -45q-87 0 -138 61q-33 40 -42.5 102.5t-9.5 200.5t9.5 200.5t42.5 102.5q51 61 138 61q76 0 125 -46q54 -49 57 -150h-112q-2 48 -17 69q-16 26 -53 26q-36 0 -53 -27q-15 -24 -20 -76.5t-5 -159.5t5 -159.5t20 -76.5 q17 -27 53 -27q37 0 53 26q15 23 17 70h112z"/>
<glyph glyph-name="D" horiz-adv-x="472" unicode="D" d="M319 357q0 104 -4.5 153t-19.5 72q-19 29 -57 29h-66v-510h66q38 0 57 29q15 23 19.5 72.5t4.5 154.5zM431 357q0 -136 -9 -198.5t-43 -99.5q-52 -59 -138 -59h-181v712h181q86 0 138 -59q34 -37 43 -98.5t9 -197.5z"/>
<glyph glyph-name="E" horiz-adv-x="396" unicode="E" d="M359 0h-299v712h299v-101h-187v-202h161v-101h-161v-207h187v-101z"/>
<glyph glyph-name="F" horiz-adv-x="390" unicode="F" d="M359 611h-187v-202h161v-101h-161v-308h-112v712h299v-101z"/>
<glyph glyph-name="G" horiz-adv-x="455" unicode="G" d="M413 190q0 -95 -49.5 -146.5t-132.5 -51.5q-87 0 -138 61q-33 40 -42.5 102.5t-9.5 200.5t9.5 200.5t42.5 102.5q51 61 138 61q79 0 127 -48q52 -53 55 -149h-112q-2 96 -70 96q-36 0 -53 -27q-15 -24 -20 -76.5t-5 -159.5t5 -159.5t20 -76.5q17 -27 53 -27 q35 0 52.5 25.5t17.5 65.5v111h-70v92h182v-197z"/>
<glyph glyph-name="H" horiz-adv-x="483" unicode="H" d="M423 0h-112v311h-139v-311h-112v712h112v-300h139v300h112v-712z"/>
<glyph glyph-name="I" horiz-adv-x="232" unicode="I" d="M172 0h-112v712h112v-712z"/>
<glyph glyph-name="J" horiz-adv-x="389" unicode="J" d="M335 186q0 -90 -49 -140q-51 -54 -143 -54q-86 0 -140 57l78 75q22 -31 62 -31q36 0 58 24.5t22 68.5v526h112v-526z"/>
<glyph glyph-name="K" horiz-adv-x="469" unicode="K" d="M462 0h-121l-115 293l-54 -110v-183h-112v712h112v-335l155 335h113l-143 -295z"/>
<glyph glyph-name="L" horiz-adv-x="383" unicode="L" d="M359 0h-299v712h112v-611h187v-101z"/>
<glyph glyph-name="M" horiz-adv-x="598" unicode="M" d="M538 0h-112v444l-97 -292h-62l-95 287v-439h-112v712h101l138 -374l137 374h102v-712z"/>
<glyph glyph-name="N" horiz-adv-x="499" unicode="N" d="M439 0h-99l-168 423v-423h-112v712h100l167 -423v423h112v-712z"/>
<glyph glyph-name="O" horiz-adv-x="462" unicode="O" d="M309 356q0 107 -4.5 159.5t-19.5 76.5q-17 27 -54 27q-36 0 -53 -27q-25 -40 -25 -236t25 -236q17 -27 53 -27q37 0 54 27q15 24 19.5 76.5t4.5 159.5zM421 356q0 -139 -9 -201.5t-43 -101.5q-51 -61 -138 -61t-138 61q-33 40 -42.5 102.5t-9.5 200.5t9.5 200.5 t42.5 102.5q51 61 138 61t138 -61q34 -39 43 -101.5t9 -201.5z"/>
<glyph glyph-name="P" horiz-adv-x="459" unicode="P" d="M310 495q0 58 -16 87t-59 29h-63v-231h63q43 0 59 28.5t16 86.5zM422 495q0 -112 -43.5 -164t-139.5 -52h-67v-279h-112v712h179q96 0 139.5 -52t43.5 -165z"/>
<glyph glyph-name="Q" horiz-adv-x="462" unicode="Q" d="M309 356q0 110 -4.5 161t-19.5 75q-17 27 -54 27q-36 0 -53 -27q-15 -24 -20 -76t-5 -160t5 -160t20 -76q17 -27 53 -27q15 0 24 5l-37 31l52 62l29 -24q10 43 10 189zM451 39l-51 -62l-58 49q-46 -34 -111 -34q-86 0 -138 61q-34 39 -43 101.5t-9 201.5t9 201.5 t43 101.5q52 61 138 61q87 0 138 -61q34 -39 43 -101.5t9 -201.5q0 -122 -5.5 -177t-23.5 -91z"/>
<glyph glyph-name="R" horiz-adv-x="478" unicode="R" d="M310 502q0 52 -14 80.5t-55 28.5h-69v-218h69q41 0 55 28.5t14 80.5zM445 0h-117l-93 292h-63v-292h-112v712h180q97 0 139.5 -49.5t42.5 -160.5q0 -71 -18.5 -116t-64.5 -70z"/>
<glyph glyph-name="S" horiz-adv-x="442" unicode="S" d="M404 197q0 -112 -46 -157q-49 -47 -139 -47q-91 0 -138 47q-46 46 -46 153h112q0 -57 20 -80q17 -19 52 -19q37 0 54 20q19 22 19 79t-12.5 78.5t-54.5 38.5l-85 35q-55 23 -77 60.5t-22 118.5q0 99 58 151q49 43 122 43q83 0 128 -43q50 -49 50 -155h-112q0 54 -17 76 q-16 21 -50 21q-30 0 -48 -20q-19 -22 -19 -70q0 -44 11 -62.5t48 -33.5l84 -34q63 -26 85.5 -68t22.5 -132z"/>
<glyph glyph-name="T" horiz-adv-x="393" unicode="T" d="M372 611h-120v-611h-112v611h-119v101h351v-101z"/>
<glyph glyph-name="U" horiz-adv-x="471" unicode="U" d="M417 175q0 -80 -49 -131q-51 -52 -132 -52q-82 0 -133 52q-49 51 -49 131v537h112v-543q0 -37 20 -56.5t50 -19.5t49.5 19.5t19.5 56.5v543h112v-537z"/>
<glyph glyph-name="V" horiz-adv-x="437" unicode="V" d="M433 712l-157 -712h-116l-156 712h123l91 -540l92 540h123z"/>
<glyph glyph-name="W" horiz-adv-x="714" unicode="W" d="M710 712l-134 -712h-117l-102 541l-101 -541h-117l-135 712h123l70 -540l98 540h124l99 -540l69 540h123z"/>
<glyph glyph-name="X" horiz-adv-x="432" unicode="X" d="M421 0h-123l-82 256l-82 -256h-123l141 369l-130 343h123l71 -238l71 238h123l-133 -343z"/>
<glyph glyph-name="Y" horiz-adv-x="389" unicode="Y" d="M388 712l-138 -433v-279h-112v279l-138 433h124l70 -282l71 282h123z"/>
<glyph glyph-name="Z" horiz-adv-x="373" unicode="Z" d="M341 0h-310v84l194 527h-182v101h298v-84l-193 -527h193v-101z"/>
<glyph glyph-name="bracketleft" horiz-adv-x="282" unicode="[" d="M253 -74h-200v860h200v-94h-94v-672h94v-94z"/>
<glyph glyph-name="backslash" horiz-adv-x="298" unicode="\" d="M291 -74h-100l-185 860h100z"/>
<glyph glyph-name="bracketright" horiz-adv-x="282" unicode="]" d="M228 -74h-199v94h93v672h-93v94h199v-860z"/>
<glyph glyph-name="asciicircum" horiz-adv-x="463" unicode="^" d="M418 434h-103l-83 177l-83 -177h-104l140 283h93z"/>
<glyph glyph-name="underscore" horiz-adv-x="457" unicode="_" d="M457 -153h-457v77h457v-77z"/>
<glyph glyph-name="grave" horiz-adv-x="399" unicode="`" d="M245 587h-74l-87 139h89z"/>
<glyph glyph-name="a" horiz-adv-x="399" unicode="a" d="M244 155v78h-35q-38 0 -55 -16q-21 -19 -21 -59q0 -73 55 -73q24 0 40 19t16 51zM350 0h-100v45q-18 -25 -32 -35q-26 -18 -60 -18q-61 0 -99 44q-32 38 -32 118q0 75 49 118q41 36 121 36h47v73q0 61 -51 61q-22 0 -35 -15q-16 -17 -16 -49h-106q0 69 45 114 q43 43 111 43q74 0 112 -39q46 -46 46 -124v-372z"/>
<glyph glyph-name="b" horiz-adv-x="408" unicode="b" d="M266 264q0 134 -17 156q-15 21 -39 21q-22 0 -36 -15q-16 -18 -16 -49v-227q0 -33 16 -49q14 -14 36 -14q25 0 39 20q17 22 17 157zM372 264q0 -101 -6.5 -151.5t-30.5 -79.5q-34 -41 -93 -41q-30 0 -53 14q-25 16 -35 33v-39h-102v712h106v-219q14 17 31 28q23 14 53 14 q60 0 93 -41q24 -29 30.5 -79t6.5 -151z"/>
<glyph glyph-name="c" horiz-adv-x="384" unicode="c" d="M356 155q-5 -83 -46 -124q-39 -39 -112 -39q-85 0 -125 56q-37 50 -37 216q0 164 37 216q40 55 125 55q70 0 111 -38q42 -40 47 -124h-105q-2 34 -14 49q-13 19 -39 19q-27 0 -41 -22q-15 -26 -15 -155t15 -156q13 -21 41 -21q26 0 39 18q12 17 14 50h105z"/>
<glyph glyph-name="d" horiz-adv-x="408" unicode="d" d="M250 150v227q0 33 -16 49q-15 15 -36 15q-24 0 -39 -21q-17 -22 -17 -156q0 -135 17 -157q14 -20 39 -20q22 0 36 14q16 16 16 49zM356 0h-102v40q-8 -18 -35 -33q-23 -15 -53 -15q-59 0 -93 41q-24 29 -30.5 80t-6.5 151t6.5 150.5t30.5 79.5q34 41 93 41q30 0 53 -14 q15 -8 31 -28v219h106v-712z"/>
<glyph glyph-name="e" horiz-adv-x="394" unicode="e" d="M254 311q0 87 -15 109q-15 21 -41 21t-41 -21q-15 -22 -15 -109h112zM360 233h-218q0 -100 16 -125q14 -21 41 -21q26 0 40 20q13 16 13 48h106q-3 -77 -45 -121q-39 -42 -114 -42q-72 0 -114 43q-30 31 -39.5 87t-9.5 142t9.5 142t39.5 87q41 42 113 42q71 0 113 -42 q29 -29 39 -91t10 -169z"/>
<glyph glyph-name="f" horiz-adv-x="271" unicode="f" d="M252 432h-73v-432h-106v432h-54v81h54v45q0 85 53 127q43 33 126 33v-95q-73 0 -73 -71v-39h73v-81z"/>
<glyph glyph-name="g" horiz-adv-x="408" unicode="g" d="M250 187v190q0 33 -16 49q-15 15 -36 15q-24 0 -39 -21q-17 -22 -17 -138t17 -138q17 -20 39 -20t36 14q16 16 16 49zM356 527v-537q0 -92 -45 -137q-43 -43 -114 -43q-73 0 -114 41q-44 43 -44 116h105q0 -32 14 -50q13 -16 39 -16q24 0 38 17q15 19 15 65v91 q-13 -17 -29 -28q-21 -14 -53 -14q-55 0 -90 39q-25 29 -33.5 76t-8.5 137q0 89 8.5 136t33.5 76q35 39 90 39q34 0 55 -14q18 -12 31 -28v34h102z"/>
<glyph glyph-name="h" horiz-adv-x="417" unicode="h" d="M368 0h-106v379q0 30 -14.5 45.5t-37.5 15.5t-37.5 -15.5t-14.5 -45.5v-379h-106v712h106v-219q13 18 31 28q23 14 53 14q61 0 96 -41q30 -34 30 -114v-380z"/>
<glyph glyph-name="i" horiz-adv-x="210" unicode="i" d="M163 594h-117v117h117v-117zM158 0h-106v513h106v-513z"/>
<glyph glyph-name="j" horiz-adv-x="210" unicode="j" d="M163 594h-117v117h117v-117zM158 -25q0 -86 -54 -127q-43 -33 -124 -33v95q37 0 54.5 16t17.5 55v532h106v-538z"/>
<glyph glyph-name="k" horiz-adv-x="416" unicode="k" d="M409 0h-117l-89 222l-45 -71v-151h-106v712h106v-410l133 225h111l-131 -209z"/>
<glyph glyph-name="l" horiz-adv-x="244" unicode="l" d="M227 0q-84 0 -125 32q-53 40 -53 128v552h106v-546q0 -71 72 -71v-95z"/>
<glyph glyph-name="m" horiz-adv-x="628" unicode="m" d="M579 0h-106v379q0 29 -15 45t-38 16t-37.5 -15.5t-14.5 -45.5v-379h-106v379q0 30 -14.5 45.5t-37.5 15.5t-37.5 -15.5t-14.5 -45.5v-379h-106v527h102v-39q18 24 35 33q23 14 53 14q65 0 103 -54q22 25 47 40q25 14 56 14q65 0 100 -41q31 -35 31 -114v-380z"/>
<glyph glyph-name="n" horiz-adv-x="417" unicode="n" d="M368 0h-106v379q0 30 -14.5 45.5t-37.5 15.5t-37.5 -15.5t-14.5 -45.5v-379h-106v527h102v-39q18 24 35 33q23 14 53 14q61 0 96 -41q30 -34 30 -114v-380z"/>
<glyph glyph-name="o" horiz-adv-x="396" unicode="o" d="M254 264q0 129 -15 155q-14 22 -41 22t-41 -22q-15 -26 -15 -155q0 -130 15 -156q13 -21 41 -21q27 0 41 21q15 26 15 156zM360 264q0 -164 -37 -216q-40 -56 -125 -56t-125 56q-37 52 -37 216t37 216q40 55 125 55t125 -55q37 -52 37 -216z"/>
<glyph glyph-name="p" horiz-adv-x="408" unicode="p" d="M266 264q0 134 -17 156q-15 21 -39 21q-22 0 -36 -15q-16 -18 -16 -49v-227q0 -33 16 -49q14 -14 36 -14q25 0 39 20q17 22 17 157zM372 264q0 -98 -7 -149.5t-30 -81.5q-33 -41 -93 -41q-30 0 -53 14q-17 11 -31 28v-219h-106v712h102v-39q8 16 35 33q23 14 53 14 q60 0 93 -41q24 -30 30.5 -81t6.5 -149z"/>
<glyph glyph-name="q" horiz-adv-x="408" unicode="q" d="M250 150v227q0 33 -16 49q-15 15 -36 15q-24 0 -39 -21q-17 -22 -17 -156q0 -135 17 -157q14 -20 39 -20q22 0 36 14q16 16 16 49zM356 -185h-106v219q-14 -17 -31 -28q-23 -14 -53 -14q-59 0 -93 41q-24 29 -30.5 80t-6.5 151t6.5 150.5t30.5 79.5q34 41 93 41 q30 0 53 -14q27 -17 35 -33v39h102v-712z"/>
<glyph glyph-name="r" horiz-adv-x="299" unicode="r" d="M282 432h-36q-38 0 -63 -24.5t-25 -66.5v-341h-106v527h102v-56q16 24 46 42q36 22 82 22v-103z"/>
<glyph glyph-name="s" horiz-adv-x="381" unicode="s" d="M352 152q0 -70 -47 -117q-43 -43 -115 -43q-75 0 -116 43q-47 49 -47 119h105q0 -32 18 -50q15 -16 40 -16t41 15q15 14 15 42q0 23 -11 39q-12 18 -41 30l-70 31q-54 24 -77 61q-17 27 -17 72q0 65 46 113q44 44 114 44q69 0 111 -40q45 -43 45 -117h-104q0 32 -15 48 t-37 16q-24 0 -39 -15t-15 -40q0 -19 8 -31q11 -18 39 -30l70 -30q54 -24 77 -58q22 -31 22 -86z"/>
<glyph glyph-name="t" horiz-adv-x="274" unicode="t" d="M254 0q-87 0 -128 32q-53 42 -53 128v272h-54v81h54v149h106v-149h73v-81h-73v-266q0 -71 75 -71v-95z"/>
<glyph glyph-name="u" horiz-adv-x="417" unicode="u" d="M365 0h-101v40q-17 -23 -36 -33q-25 -15 -53 -15q-61 0 -96 41q-30 34 -30 114v380h106v-379q0 -30 14.5 -45.5t37.5 -15.5t37.5 15.5t14.5 45.5v379h106v-527z"/>
<glyph glyph-name="v" horiz-adv-x="381" unicode="v" d="M377 527l-130 -527h-112l-131 527h117l70 -359l69 359h117z"/>
<glyph glyph-name="w" horiz-adv-x="577" unicode="w" d="M573 527l-118 -527h-105l-63 342l-62 -342h-105l-116 527h118l55 -359l65 359h91l66 -359l55 359h119z"/>
<glyph glyph-name="x" horiz-adv-x="391" unicode="x" d="M382 0h-118l-69 164l-69 -164h-117l124 268l-118 259h117l63 -160l63 160h118l-120 -259z"/>
<glyph glyph-name="y" horiz-adv-x="382" unicode="y" d="M377 527l-148 -594q-18 -73 -65.5 -95.5t-131.5 -22.5v94q28 1 43 3.5t30 15t21 36.5l9 37l-131 526h117l70 -359l69 359h117z"/>
<glyph glyph-name="z" horiz-adv-x="325" unicode="z" d="M299 0h-273v80l154 353h-142v94h261v-79l-154 -353h154v-95z"/>
<glyph glyph-name="braceleft" horiz-adv-x="335" unicode="{" d="M307 -74h-61q-55 0 -94 36q-38 36 -38 104v190q0 23 -13 38t-33 15h-39v94h39q20 0 33 15t13 38v190q0 68 38 104q39 36 94 36h61v-95h-39q-21 0 -34.5 -14.5t-13.5 -37.5v-180q0 -54 -27 -81q-16 -16 -40 -22q24 -6 40 -22q27 -27 27 -81v-180q0 -23 13.5 -37.5 t34.5 -14.5h39v-95z"/>
<glyph glyph-name="bar" horiz-adv-x="330" unicode="|" d="M218 -74h-106v860h106v-860z"/>
<glyph glyph-name="braceright" horiz-adv-x="335" unicode="}" d="M89 -74h-61v95h39q21 0 34.5 14.5t13.5 37.5v180q0 54 27 81q16 16 40 22q-24 6 -40 22q-27 27 -27 81v180q0 23 -13.5 37.5t-34.5 14.5h-39v95h61q55 0 94 -36q38 -36 38 -104v-190q0 -23 13 -38t33 -15h39v-94h-39q-20 0 -33 -15t-13 -38v-190q0 -68 -38 -104 q-39 -36 -94 -36z"/>
<glyph glyph-name="asciitilde" horiz-adv-x="457" unicode="~" d="M434 287q-66 -66 -126 -66q-41 0 -88 25q-38 20 -66 20q-33 0 -66 -33l-65 64q66 66 126 66q42 0 89 -25q38 -20 65 -20q33 0 66 33z"/>
<glyph glyph-name="uni00A0" horiz-adv-x="179" unicode=" "/>
<glyph glyph-name="exclamdown" horiz-adv-x="257" unicode="¡" d="M179 404h-123v123h123v-123zM170 -185h-106v513h106v-513z"/>
<glyph glyph-name="cent" horiz-adv-x="392" unicode="¢" d="M360 259q-3 -78 -45 -118q-24 -24 -71 -34v-107h-81v107q-54 10 -85 50q-37 49 -37 206t37 206q31 40 85 50v93h81v-93q40 -6 70 -33q42 -38 46 -119h-105q0 30 -13 47q-14 17 -39 17q-28 0 -41 -20q-15 -25 -15 -148t15 -148q14 -21 41 -21q24 0 39 18q13 15 13 47h105z "/>
<glyph glyph-name="sterling" horiz-adv-x="460" unicode="£" d="M427 0h-332v324h-63v81h63v122q0 86 54.5 139.5t136.5 53.5q86 0 141 -57l-77 -75q-26 31 -64 31q-34 0 -56.5 -24.5t-22.5 -66.5v-123h80v-81h-80v-223h220v-101z"/>
<glyph glyph-name="currency" horiz-adv-x="505" unicode="¤" d="M342 286q0 37 -26 63.5t-63 26.5t-63 -26.5t-26 -63.5t26 -63t63 -26t63 26t26 63zM464 141l-65 -66l-57 56q-43 -25 -89 -25q-45 0 -90 25l-56 -56l-66 66l57 56q-25 41 -25 89q0 49 25 90l-57 56l66 66l56 -56q43 24 90 24t89 -24l57 56l65 -66l-56 -56q25 -43 25 -90 q0 -46 -25 -89z"/>
<glyph glyph-name="yen" horiz-adv-x="389" unicode="¥" d="M380 712l-93 -305h59v-80h-84l-15 -48v-40h99v-81h-99v-158h-106v158h-99v81h99v40l-14 48h-85v80h60l-93 305h117l68 -282l69 282h117z"/>
<glyph glyph-name="brokenbar" horiz-adv-x="330" unicode="¦" d="M218 -72h-106v346h106v-346zM218 438h-106v346h106v-346z"/>
<glyph glyph-name="section" horiz-adv-x="429" unicode="§" d="M384 270q0 -61 -9 -93t-40 -58q-14 -12 -26 -15q33 -21 49 -48q19 -32 19 -76q0 -71 -47 -118q-41 -42 -118 -42q-72 0 -116 44q-47 47 -47 113h108q0 -28 16 -45q15 -16 39 -16q27 0 41 14q15 15 15 41q0 21 -11 37q-14 20 -41 31l-73 31q-30 13 -50 32q-32 31 -40 66.5 t-8 101.5q0 58 9.5 89t39.5 57q15 11 28 16q-35 22 -51 49q-18 29 -18 75q0 66 46 112q44 44 116 44q63 0 106 -35q52 -43 52 -118h-106q0 29 -15 44q-15 16 -37 16q-23 0 -38 -15t-15 -39q0 -21 8 -35q12 -19 39 -30l72 -31q38 -15 59 -36q27 -28 35.5 -60t8.5 -103z M278 270q0 48 -4.5 68.5t-18.5 32.5q-17 15 -40 15q-22 0 -40 -15q-13 -12 -18.5 -32.5t-5.5 -68.5q0 -47 5 -68t19 -33q17 -15 40 -15t40 15q23 20 23 101z"/>
<glyph glyph-name="dieresis" horiz-adv-x="399" unicode="¨" d="M162 597h-100v100h100v-100zM337 597h-100v100h100v-100z"/>
<glyph glyph-name="copyright" horiz-adv-x="844" unicode="©" d="M526 268q-2 -58 -31 -87q-27 -27 -71 -27q-49 0 -77 35q-18 21 -23.5 57.5t-5.5 108.5t5.5 109t23.5 58q28 35 77 35q44 0 71 -27q29 -30 31 -88h-64q0 32 -10 43q-10 12 -28 12t-29 -15q-13 -21 -13 -127q0 -107 13 -126q11 -15 29 -15t28 12q10 11 10 42h64zM713 356 q0 127 -84 212t-207 85t-207 -85t-84 -212t84 -212t207 -85t207 85t84 212zM784 356q0 -150 -106 -256t-256 -106t-256 106t-106 256t106 256t256 106t256 -106t106 -256z"/>
<glyph glyph-name="ordfeminine" horiz-adv-x="331" unicode="ª" d="M201 420v57h-28q-30 0 -43 -12q-17 -17 -17 -45q0 -56 44 -56q19 0 31.5 15t12.5 41zM289 294h-82v33q-10 -12 -28 -25q-21 -12 -47 -12q-51 0 -81 34q-26 29 -26 92q0 59 41 94q34 29 98 29h37v54q0 47 -41 47q-18 0 -29 -13q-11 -11 -11 -38h-88q0 58 36 93 q37 35 92 35q58 0 92 -33q37 -35 37 -99v-291z"/>
<glyph glyph-name="guillemotleft" horiz-adv-x="414" unicode="«" d="M367 27l-160 249l160 248v-158l-62 -90l62 -92v-157zM185 27l-161 249l161 248v-158l-61 -90l61 -92v-157z"/>
<glyph glyph-name="logicalnot" horiz-adv-x="457" unicode="¬" d="M407 142h-101v110h-255v101h356v-211z"/>
<glyph glyph-name="uni00AD" horiz-adv-x="295" unicode="­" d="M249 238h-202v101h202v-101z"/>
<glyph glyph-name="registered" horiz-adv-x="844" unicode="®" d="M468 435q0 34 -11 47q-10 10 -25 10h-39v-114h39q15 0 25 10q11 12 11 47zM544 158h-67l-49 160h-35v-160h-65v394h104q50 0 74 -24q26 -27 26 -93q0 -62 -25 -88q-7 -8 -19 -15zM713 356q0 127 -84 212t-207 85t-207 -85t-84 -212t84 -212t207 -85t207 85t84 212z M784 356q0 -150 -106 -256t-256 -106t-256 106t-106 256t106 256t256 106t256 -106t106 -256z"/>
<glyph glyph-name="macron" horiz-adv-x="399" unicode="¯" d="M322 610h-245v71h245v-71z"/>
<glyph glyph-name="degree" horiz-adv-x="410" unicode="°" d="M274 564q0 29 -20 49.5t-49 20.5t-49 -20.5t-20 -49.5t20 -49t49 -20t49 20t20 49zM367 564q0 -67 -47.5 -114.5t-114.5 -47.5t-114.5 47.5t-47.5 114.5t47.5 114.5t114.5 47.5t114.5 -47.5t47.5 -114.5z"/>
<glyph glyph-name="plusminus" horiz-adv-x="457" unicode="±" d="M413 13h-369v101h369v-101zM413 316h-134v-134h-101v134h-134v101h134v134h101v-134h134v-101z"/>
<glyph glyph-name="twosuperior" horiz-adv-x="321" unicode="²" d="M279 285h-231v56l133 203q21 34 21 72q0 19 -11.5 30t-29.5 11q-41 0 -41 -43v-30h-77v28q0 51 33 78q32 27 85 27q50 0 82 -24q36 -29 36 -79q0 -46 -30 -92l-118 -177h148v-60z"/>
<glyph glyph-name="threesuperior" horiz-adv-x="321" unicode="³" d="M282 405q0 -39 -6 -60t-28 -38q-30 -27 -85 -27q-52 0 -86 28q-31 25 -31 80v18h77v-20q0 -25 10 -35q13 -11 30 -11q19 0 30 11q12 15 12 59q0 43 -11 57q-10 13 -32 13h-25v57h25q18 0 27 9q13 12 13 56q0 35 -11 45q-10 10 -28 10t-28 -10t-10 -31v-24h-77v20 q0 52 32 78q31 27 83 27q53 0 82 -26q34 -30 34 -88q0 -43 -15 -67q-12 -19 -31 -27q22 -12 34 -30q15 -25 15 -74z"/>
<glyph glyph-name="acute" horiz-adv-x="399" unicode="´" d="M315 726l-87 -139h-74l72 139h89z"/>
<glyph glyph-name="mu" horiz-adv-x="421" unicode="µ" d="M367 0h-102v40q-18 -24 -35 -33q-25 -15 -56 -15q-16 0 -22 8v-185h-102v712h106v-379q0 -29 15 -45t38 -16t37.5 15.5t14.5 45.5v379h106v-527z"/>
<glyph glyph-name="paragraph" horiz-adv-x="602" unicode="¶" d="M549 -185h-106v796h-101v-796h-106v471h-52q-148 0 -148 213t148 213h365v-897z"/>
<glyph glyph-name="periodcentered" horiz-adv-x="272" unicode="·" d="M216 221h-160v160h160v-160z"/>
<glyph glyph-name="cedilla" horiz-adv-x="399" unicode="¸" d="M243 -40l-53 -154h-76l61 154h68z"/>
<glyph glyph-name="onesuperior" horiz-adv-x="322" unicode="¹" d="M223 285h-77v349l-74 -47v76l75 49h76v-427z"/>
<glyph glyph-name="ordmasculine" horiz-adv-x="329" unicode="º" d="M209 502q0 100 -13 120q-11 17 -31 17q-21 0 -32 -17q-13 -20 -13 -120t13 -120q11 -17 32 -17q20 0 31 17q13 20 13 120zM297 502q0 -129 -31 -170q-31 -44 -101 -44q-71 0 -102 44q-31 41 -31 170t31 170q31 44 102 44q70 0 101 -44q31 -41 31 -170z"/>
<glyph glyph-name="guillemotright" horiz-adv-x="414" unicode="»" d="M207 276l-160 -249v157l62 92l-62 90v158zM389 276l-160 -249v157l61 92l-61 90v158z"/>
<glyph glyph-name="onequarter" horiz-adv-x="832" unicode="¼" d="M795 63h-33v-63h-77v63h-146v60l109 304h73l-106 -304h70v70h77v-70h33v-60zM580 712l-246 -712h-82l246 712h82zM223 285h-77v349l-74 -47v76l75 49h76v-427z"/>
<glyph glyph-name="onehalf" horiz-adv-x="831" unicode="½" d="M789 0h-231v56l133 203q21 34 21 72q0 19 -11.5 30t-29.5 11q-41 0 -41 -43v-30h-77v28q0 51 33 78q32 27 85 27q50 0 82 -24q36 -29 36 -79q0 -46 -30 -92l-118 -177h148v-60zM580 712l-246 -712h-82l246 712h82zM223 285h-77v349l-74 -47v76l75 49h76v-427z"/>
<glyph glyph-name="threequarters" horiz-adv-x="831" unicode="¾" d="M794 63h-33v-63h-77v63h-146v60l109 304h73l-106 -304h70v70h77v-70h33v-60zM579 712l-246 -712h-82l246 712h82zM282 405q0 -39 -6 -60t-28 -38q-30 -27 -85 -27q-52 0 -86 28q-31 25 -31 80v18h77v-20q0 -25 10 -35q13 -11 30 -11q19 0 30 11q12 15 12 59q0 43 -11 57 q-10 13 -32 13h-25v57h25q18 0 27 9q13 12 13 56q0 35 -11 45q-10 10 -28 10t-28 -10t-10 -31v-24h-77v20q0 52 32 78q31 27 83 27q53 0 82 -26q34 -30 34 -88q0 -43 -15 -67q-12 -19 -31 -27q22 -12 34 -30q15 -25 15 -74z"/>
<glyph glyph-name="questiondown" horiz-adv-x="426" unicode="¿" d="M264 404h-123v123h123v-123zM370 1q0 -101 -47 -145q-51 -47 -120 -47q-78 0 -122 46q-48 48 -48 149q0 78 34 123l59 78q23 31 23 65v58h106v-70q0 -45 -31 -86l-59 -78q-26 -34 -26 -93q0 -55 20 -78q17 -19 43 -19t43 19q19 21 19 78h106z"/>
<glyph glyph-name="Agrave" horiz-adv-x="468" unicode="À" d="M280 760h-74l-88 139h90zM295 242l-61 298l-61 -298h122zM462 0h-117l-29 141h-165l-28 -141h-118l175 712h109z"/>
<glyph glyph-name="Aacute" horiz-adv-x="468" unicode="Á" d="M350 899l-87 -139h-74l72 139h89zM295 242l-61 298l-61 -298h122zM462 0h-117l-29 141h-165l-28 -141h-118l175 712h109z"/>
<glyph glyph-name="Acircumflex" horiz-adv-x="468" unicode="Â" d="M375 760h-81l-60 82l-59 -82h-81l99 139h83zM295 242l-61 298l-61 -298h122zM462 0h-117l-29 141h-165l-28 -141h-118l175 712h109z"/>
<glyph glyph-name="Atilde" horiz-adv-x="468" unicode="Ã" d="M381 814q-46 -46 -90 -46q-30 0 -61 17q-25 15 -44 15q-23 0 -46 -23l-46 46q47 47 89 47q33 0 62 -17q25 -15 44 -15q23 0 45 23zM295 242l-61 298l-61 -298h122zM462 0h-117l-29 141h-165l-28 -141h-118l175 712h109z"/>
<glyph glyph-name="Adieresis" horiz-adv-x="468" unicode="Ä" d="M197 770h-100v100h100v-100zM372 770h-100v100h100v-100zM295 242l-61 298l-61 -298h122zM462 0h-117l-29 141h-165l-28 -141h-118l175 712h109z"/>
<glyph glyph-name="Aring" horiz-adv-x="468" unicode="Å" d="M280 858q0 19 -13.5 32.5t-32.5 13.5t-32 -13.5t-13 -32.5t13 -32.5t32 -13.5t32.5 13.5t13.5 32.5zM339 858q0 -43 -30.5 -73.5t-74.5 -30.5q-43 0 -73.5 30.5t-30.5 73.5t30.5 73.5t73.5 30.5q44 0 74.5 -30.5t30.5 -73.5zM295 242l-61 298l-61 -298h122zM462 0h-117 l-29 141h-165l-28 -141h-118l175 712h109z"/>
<glyph glyph-name="AE" horiz-adv-x="675" unicode="Æ" d="M339 249v362l-125 -362h125zM638 0h-299v148h-158l-52 -148h-123l261 712h371v-101h-187v-202h161v-101h-161v-207h187v-101z"/>
<glyph glyph-name="Ccedilla" horiz-adv-x="447" unicode="Ç" d="M267 -40l-53 -154h-76l61 154h68zM413 189q-3 -101 -59 -152q-48 -45 -123 -45q-87 0 -138 61q-33 40 -42.5 102.5t-9.5 200.5t9.5 200.5t42.5 102.5q51 61 138 61q76 0 125 -46q54 -49 57 -150h-112q-2 48 -17 69q-16 26 -53 26q-36 0 -53 -27q-15 -24 -20 -76.5 t-5 -159.5t5 -159.5t20 -76.5q17 -27 53 -27q37 0 53 26q15 23 17 70h112z"/>
<glyph glyph-name="Egrave" horiz-adv-x="396" unicode="È" d="M259 760h-74l-88 139h90zM359 0h-299v712h299v-101h-187v-202h161v-101h-161v-207h187v-101z"/>
<glyph glyph-name="Eacute" horiz-adv-x="396" unicode="É" d="M329 899l-87 -139h-74l72 139h89zM359 0h-299v712h299v-101h-187v-202h161v-101h-161v-207h187v-101z"/>
<glyph glyph-name="Ecircumflex" horiz-adv-x="396" unicode="Ê" d="M354 760h-81l-60 82l-59 -82h-81l99 139h83zM359 0h-299v712h299v-101h-187v-202h161v-101h-161v-207h187v-101z"/>
<glyph glyph-name="Edieresis" horiz-adv-x="396" unicode="Ë" d="M176 770h-100v100h100v-100zM351 770h-100v100h100v-100zM359 0h-299v712h299v-101h-187v-202h161v-101h-161v-207h187v-101z"/>
<glyph glyph-name="Igrave" horiz-adv-x="232" unicode="Ì" d="M162 760h-74l-88 139h90zM172 0h-112v712h112v-712z"/>
<glyph glyph-name="Iacute" horiz-adv-x="232" unicode="Í" d="M232 899l-87 -139h-74l72 139h89zM172 0h-112v712h112v-712z"/>
<glyph glyph-name="Icircumflex" horiz-adv-x="232" unicode="Î" d="M257 760h-81l-60 82l-59 -82h-81l99 139h83zM172 0h-112v712h112v-712z"/>
<glyph glyph-name="Idieresis" horiz-adv-x="232" unicode="Ï" d="M79 770h-100v100h100v-100zM254 770h-100v100h100v-100zM172 0h-112v712h112v-712z"/>
<glyph glyph-name="Eth" horiz-adv-x="489" unicode="Ð" d="M336 357q0 104 -4.5 153t-19.5 72q-19 29 -57 29h-66v-209h70v-88h-70v-213h66q38 0 57 29q15 23 19.5 72.5t4.5 154.5zM26 314v88h51v310h181q86 0 138 -59q34 -37 43 -98.5t9 -197.5t-9 -198.5t-43 -99.5q-52 -59 -138 -59h-181v314h-51z"/>
<glyph glyph-name="Ntilde" horiz-adv-x="499" unicode="Ñ" d="M396 814q-46 -46 -90 -46q-30 0 -61 17q-25 15 -44 15q-23 0 -46 -23l-46 46q47 47 89 47q33 0 62 -17q25 -15 44 -15q23 0 45 23zM439 0h-99l-168 423v-423h-112v712h100l167 -423v423h112v-712z"/>
<glyph glyph-name="Ograve" horiz-adv-x="462" unicode="Ò" d="M277 760h-74l-88 139h90zM309 356q0 107 -4.5 159.5t-19.5 76.5q-17 27 -54 27q-36 0 -53 -27q-25 -40 -25 -236t25 -236q17 -27 53 -27q37 0 54 27q15 24 19.5 76.5t4.5 159.5zM421 356q0 -139 -9 -201.5t-43 -101.5q-51 -61 -138 -61t-138 61q-33 40 -42.5 102.5 t-9.5 200.5t9.5 200.5t42.5 102.5q51 61 138 61t138 -61q34 -39 43 -101.5t9 -201.5z"/>
<glyph glyph-name="Oacute" horiz-adv-x="462" unicode="Ó" d="M347 899l-87 -139h-74l72 139h89zM309 356q0 107 -4.5 159.5t-19.5 76.5q-17 27 -54 27q-36 0 -53 -27q-25 -40 -25 -236t25 -236q17 -27 53 -27q37 0 54 27q15 24 19.5 76.5t4.5 159.5zM421 356q0 -139 -9 -201.5t-43 -101.5q-51 -61 -138 -61t-138 61 q-33 40 -42.5 102.5t-9.5 200.5t9.5 200.5t42.5 102.5q51 61 138 61t138 -61q34 -39 43 -101.5t9 -201.5z"/>
<glyph glyph-name="Ocircumflex" horiz-adv-x="462" unicode="Ô" d="M372 760h-81l-60 82l-59 -82h-81l99 139h83zM309 356q0 107 -4.5 159.5t-19.5 76.5q-17 27 -54 27q-36 0 -53 -27q-25 -40 -25 -236t25 -236q17 -27 53 -27q37 0 54 27q15 24 19.5 76.5t4.5 159.5zM421 356q0 -139 -9 -201.5t-43 -101.5q-51 -61 -138 -61t-138 61 q-33 40 -42.5 102.5t-9.5 200.5t9.5 200.5t42.5 102.5q51 61 138 61t138 -61q34 -39 43 -101.5t9 -201.5z"/>
<glyph glyph-name="Otilde" horiz-adv-x="462" unicode="Õ" d="M378 814q-46 -46 -90 -46q-30 0 -61 17q-25 15 -44 15q-23 0 -46 -23l-46 46q47 47 89 47q33 0 62 -17q25 -15 44 -15q23 0 45 23zM309 356q0 107 -4.5 159.5t-19.5 76.5q-17 27 -54 27q-36 0 -53 -27q-25 -40 -25 -236t25 -236q17 -27 53 -27q37 0 54 27 q15 24 19.5 76.5t4.5 159.5zM421 356q0 -139 -9 -201.5t-43 -101.5q-51 -61 -138 -61t-138 61q-33 40 -42.5 102.5t-9.5 200.5t9.5 200.5t42.5 102.5q51 61 138 61t138 -61q34 -39 43 -101.5t9 -201.5z"/>
<glyph glyph-name="Odieresis" horiz-adv-x="462" unicode="Ö" d="M194 770h-100v100h100v-100zM369 770h-100v100h100v-100zM309 356q0 107 -4.5 159.5t-19.5 76.5q-17 27 -54 27q-36 0 -53 -27q-25 -40 -25 -236t25 -236q17 -27 53 -27q37 0 54 27q15 24 19.5 76.5t4.5 159.5zM421 356q0 -139 -9 -201.5t-43 -101.5q-51 -61 -138 -61 t-138 61q-33 40 -42.5 102.5t-9.5 200.5t9.5 200.5t42.5 102.5q51 61 138 61t138 -61q34 -39 43 -101.5t9 -201.5z"/>
<glyph glyph-name="multiply" horiz-adv-x="457" unicode="×" d="M413 170l-68 -68l-116 116l-116 -116l-68 68l116 116l-116 116l68 68l116 -115l116 115l68 -68l-116 -116z"/>
<glyph glyph-name="Oslash" horiz-adv-x="462" unicode="Ø" d="M309 356q0 78 -3 130l-124 -371q14 -22 49 -22q37 0 54 27q15 24 19.5 76.5t4.5 159.5zM153 356q0 -96 3 -132l125 374q-18 21 -50 21q-36 0 -53 -27q-25 -40 -25 -236zM421 356q0 -139 -9 -201.5t-43 -101.5q-51 -61 -138 -61q-47 0 -87 19l-19 -55h-74l37 103 q-30 39 -38.5 100.5t-8.5 196.5q0 138 9.5 200.5t42.5 102.5q51 61 138 61q50 0 87 -20l20 56h74l-37 -105q29 -36 37.5 -98.5t8.5 -196.5z"/>
<glyph glyph-name="Ugrave" horiz-adv-x="471" unicode="Ù" d="M281 760h-74l-88 139h90zM417 175q0 -80 -49 -131q-51 -52 -132 -52q-82 0 -133 52q-49 51 -49 131v537h112v-543q0 -37 20 -56.5t50 -19.5t49.5 19.5t19.5 56.5v543h112v-537z"/>
<glyph glyph-name="Uacute" horiz-adv-x="471" unicode="Ú" d="M351 899l-87 -139h-74l72 139h89zM417 175q0 -80 -49 -131q-51 -52 -132 -52q-82 0 -133 52q-49 51 -49 131v537h112v-543q0 -37 20 -56.5t50 -19.5t49.5 19.5t19.5 56.5v543h112v-537z"/>
<glyph glyph-name="Ucircumflex" horiz-adv-x="471" unicode="Û" d="M376 760h-81l-60 82l-59 -82h-81l99 139h83zM417 175q0 -80 -49 -131q-51 -52 -132 -52q-82 0 -133 52q-49 51 -49 131v537h112v-543q0 -37 20 -56.5t50 -19.5t49.5 19.5t19.5 56.5v543h112v-537z"/>
<glyph glyph-name="Udieresis" horiz-adv-x="471" unicode="Ü" d="M198 770h-100v100h100v-100zM373 770h-100v100h100v-100zM417 175q0 -80 -49 -131q-51 -52 -132 -52q-82 0 -133 52q-49 51 -49 131v537h112v-543q0 -37 20 -56.5t50 -19.5t49.5 19.5t19.5 56.5v543h112v-537z"/>
<glyph glyph-name="Yacute" horiz-adv-x="389" unicode="Ý" d="M312 899l-87 -139h-74l72 139h89zM388 712l-138 -433v-279h-112v279l-138 433h124l70 -282l71 282h123z"/>
<glyph glyph-name="Thorn" horiz-adv-x="459" unicode="Þ" d="M310 360q0 58 -16 87t-55 29h-67v-232h67q39 0 55 29t16 87zM422 361q0 -113 -43.5 -165.5t-139.5 -52.5h-67v-143h-112v712h112v-135h67q96 0 139.5 -52t43.5 -164z"/>
<glyph glyph-name="germandbls" horiz-adv-x="416" unicode="ß" d="M381 215q0 -45 -2 -69.5t-12.5 -54.5t-32.5 -51q-41 -40 -122 -40v95q32 0 45 17q18 21 18 112q0 82 -15 105q-14 19 -40 19h-8v89h8q20 0 34 17q14 20 14 75t-15 78q-14 18 -41 18q-24 0 -39 -16.5t-15 -47.5v-561h-106v558q0 76 45 119q44 43 114 43q75 0 116 -41 q47 -47 47 -141q0 -67 -17 -101q-15 -28 -38 -43q26 -18 39 -41q15 -24 19 -53.5t4 -84.5z"/>
<glyph glyph-name="agrave" horiz-adv-x="399" unicode="à" d="M242 587h-74l-88 139h90zM244 155v78h-35q-38 0 -55 -16q-21 -19 -21 -59q0 -73 55 -73q24 0 40 19t16 51zM350 0h-100v45q-18 -25 -32 -35q-26 -18 -60 -18q-61 0 -99 44q-32 38 -32 118q0 75 49 118q41 36 121 36h47v73q0 61 -51 61q-22 0 -35 -15q-16 -17 -16 -49 h-106q0 69 45 114q43 43 111 43q74 0 112 -39q46 -46 46 -124v-372z"/>
<glyph glyph-name="aacute" horiz-adv-x="399" unicode="á" d="M313 726l-88 -139h-74l72 139h90zM244 155v78h-35q-38 0 -55 -16q-21 -19 -21 -59q0 -73 55 -73q24 0 40 19t16 51zM350 0h-100v45q-18 -25 -32 -35q-26 -18 -60 -18q-61 0 -99 44q-32 38 -32 118q0 75 49 118q41 36 121 36h47v73q0 61 -51 61q-22 0 -35 -15 q-16 -17 -16 -49h-106q0 69 45 114q43 43 111 43q74 0 112 -39q46 -46 46 -124v-372z"/>
<glyph glyph-name="acircumflex" horiz-adv-x="399" unicode="â" d="M336 587h-82l-59 82l-59 -82h-82l99 139h84zM244 155v78h-35q-38 0 -55 -16q-21 -19 -21 -59q0 -73 55 -73q24 0 40 19t16 51zM350 0h-100v45q-18 -25 -32 -35q-26 -18 -60 -18q-61 0 -99 44q-32 38 -32 118q0 75 49 118q41 36 121 36h47v73q0 61 -51 61q-22 0 -35 -15 q-16 -17 -16 -49h-106q0 69 45 114q43 43 111 43q74 0 112 -39q46 -46 46 -124v-372z"/>
<glyph glyph-name="atilde" horiz-adv-x="399" unicode="ã" d="M342 642q-46 -47 -90 -47q-30 0 -61 17q-25 15 -44 15q-23 0 -46 -23l-46 46q47 47 89 47q33 0 62 -17q25 -15 44 -15q23 0 45 23zM244 155v78h-35q-38 0 -55 -16q-21 -19 -21 -59q0 -73 55 -73q24 0 40 19t16 51zM350 0h-100v45q-18 -25 -32 -35q-26 -18 -60 -18 q-61 0 -99 44q-32 38 -32 118q0 75 49 118q41 36 121 36h47v73q0 61 -51 61q-22 0 -35 -15q-16 -17 -16 -49h-106q0 69 45 114q43 43 111 43q74 0 112 -39q46 -46 46 -124v-372z"/>
<glyph glyph-name="adieresis" horiz-adv-x="399" unicode="ä" d="M157 597h-99v100h99v-100zM333 597h-100v100h100v-100zM244 155v78h-35q-38 0 -55 -16q-21 -19 -21 -59q0 -73 55 -73q24 0 40 19t16 51zM350 0h-100v45q-18 -25 -32 -35q-26 -18 -60 -18q-61 0 -99 44q-32 38 -32 118q0 75 49 118q41 36 121 36h47v73q0 61 -51 61 q-22 0 -35 -15q-16 -17 -16 -49h-106q0 69 45 114q43 43 111 43q74 0 112 -39q46 -46 46 -124v-372z"/>
<glyph glyph-name="aring" horiz-adv-x="399" unicode="å" d="M241 689q0 19 -13.5 32.5t-32.5 13.5t-32.5 -13.5t-13.5 -32.5t13.5 -32t32.5 -13t32.5 13t13.5 32zM300 689q0 -43 -31 -73.5t-74 -30.5t-73.5 30.5t-30.5 73.5q0 44 30.5 74.5t73.5 30.5q44 0 74.5 -30.5t30.5 -74.5zM244 155v78h-35q-38 0 -55 -16q-21 -19 -21 -59 q0 -73 55 -73q24 0 40 19t16 51zM350 0h-100v45q-18 -25 -32 -35q-26 -18 -60 -18q-61 0 -99 44q-32 38 -32 118q0 75 49 118q41 36 121 36h47v73q0 61 -51 61q-22 0 -35 -15q-16 -17 -16 -49h-106q0 69 45 114q43 43 111 43q74 0 112 -39q46 -46 46 -124v-372z"/>
<glyph glyph-name="ae" horiz-adv-x="602" unicode="æ" d="M568 233h-218q0 -102 16 -125q14 -21 40 -21t41 21q13 16 13 47h105q-3 -76 -44 -121q-39 -42 -115 -42q-54 0 -89 26q-23 16 -41 44q-21 -33 -42 -48q-31 -22 -76 -22q-61 0 -99 44q-32 40 -32 118q0 75 49 118q41 36 121 36h47v74q0 29 -13.5 44.5t-37.5 15.5t-37 -16 q-14 -17 -14 -48h-106q0 69 45 114q43 43 111 43q57 0 88 -24q9 -8 19 -21q6 9 16 17q37 28 91 28q71 0 113 -42q29 -29 39 -91t10 -169zM461 311q0 87 -15 109q-15 21 -41 21t-41 -21q-15 -22 -15 -109h112zM244 155v78h-35q-38 0 -55 -16q-21 -19 -21 -59q0 -73 55 -73 q24 0 40 19t16 51z"/>
<glyph glyph-name="ccedilla" horiz-adv-x="384" unicode="ç" d="M243 -40l-53 -154h-76l61 154h68zM356 155q-5 -83 -46 -124q-39 -39 -112 -39q-85 0 -125 56q-37 50 -37 216q0 164 37 216q40 55 125 55q70 0 111 -38q42 -40 47 -124h-105q-2 34 -14 49q-13 19 -39 19q-27 0 -41 -22q-15 -26 -15 -155t15 -156q13 -21 41 -21 q26 0 39 18q12 17 14 50h105z"/>
<glyph glyph-name="egrave" horiz-adv-x="394" unicode="è" d="M245 587h-74l-88 139h90zM254 311q0 87 -15 109q-15 21 -41 21t-41 -21q-15 -22 -15 -109h112zM360 233h-218q0 -100 16 -125q14 -21 41 -21q26 0 40 20q13 16 13 48h106q-3 -77 -45 -121q-39 -42 -114 -42q-72 0 -114 43q-30 31 -39.5 87t-9.5 142t9.5 142t39.5 87 q41 42 113 42q71 0 113 -42q29 -29 39 -91t10 -169z"/>
<glyph glyph-name="eacute" horiz-adv-x="394" unicode="é" d="M316 726l-88 -139h-74l72 139h90zM254 311q0 87 -15 109q-15 21 -41 21t-41 -21q-15 -22 -15 -109h112zM360 233h-218q0 -100 16 -125q14 -21 41 -21q26 0 40 20q13 16 13 48h106q-3 -77 -45 -121q-39 -42 -114 -42q-72 0 -114 43q-30 31 -39.5 87t-9.5 142t9.5 142 t39.5 87q41 42 113 42q71 0 113 -42q29 -29 39 -91t10 -169z"/>
<glyph glyph-name="ecircumflex" horiz-adv-x="394" unicode="ê" d="M339 587h-82l-59 82l-59 -82h-82l99 139h84zM254 311q0 87 -15 109q-15 21 -41 21t-41 -21q-15 -22 -15 -109h112zM360 233h-218q0 -100 16 -125q14 -21 41 -21q26 0 40 20q13 16 13 48h106q-3 -77 -45 -121q-39 -42 -114 -42q-72 0 -114 43q-30 31 -39.5 87t-9.5 142 t9.5 142t39.5 87q41 42 113 42q71 0 113 -42q29 -29 39 -91t10 -169z"/>
<glyph glyph-name="edieresis" horiz-adv-x="394" unicode="ë" d="M160 597h-99v100h99v-100zM336 597h-100v100h100v-100zM254 311q0 87 -15 109q-15 21 -41 21t-41 -21q-15 -22 -15 -109h112zM360 233h-218q0 -100 16 -125q14 -21 41 -21q26 0 40 20q13 16 13 48h106q-3 -77 -45 -121q-39 -42 -114 -42q-72 0 -114 43q-30 31 -39.5 87 t-9.5 142t9.5 142t39.5 87q41 42 113 42q71 0 113 -42q29 -29 39 -91t10 -169z"/>
<glyph glyph-name="igrave" horiz-adv-x="210" unicode="ì" d="M151 587h-74l-88 139h90zM158 0h-106v513h106v-513z"/>
<glyph glyph-name="iacute" horiz-adv-x="210" unicode="í" d="M223 726l-88 -139h-74l72 139h90zM158 0h-106v513h106v-513z"/>
<glyph glyph-name="icircumflex" horiz-adv-x="210" unicode="î" d="M246 587h-82l-59 82l-59 -82h-82l99 139h84zM158 0h-106v513h106v-513z"/>
<glyph glyph-name="idieresis" horiz-adv-x="210" unicode="ï" d="M68 597h-99v100h99v-100zM244 597h-100v100h100v-100zM158 0h-106v513h106v-513z"/>
<glyph glyph-name="eth" horiz-adv-x="400" unicode="ð" d="M256 245q0 114 -16 139q-12 20 -41 20q-28 0 -40 -20q-16 -25 -16 -139q0 -113 16 -138q12 -20 40 -20q29 0 41 20q16 25 16 138zM362 243q0 -149 -39 -199q-40 -52 -124 -52q-83 0 -123 52q-39 50 -39 199q0 91 7 138.5t31 74.5q34 38 94 38q35 0 60 -17l-30 92h-75v78 h51l-23 65h107l22 -65h70v-78h-47l31 -101q27 -90 27 -225z"/>
<glyph glyph-name="ntilde" horiz-adv-x="417" unicode="ñ" d="M358 642q-46 -47 -90 -47q-30 0 -61 17q-25 15 -44 15q-23 0 -46 -23l-46 46q47 47 89 47q33 0 62 -17q25 -15 44 -15q23 0 45 23zM368 0h-106v379q0 30 -14.5 45.5t-37.5 15.5t-37.5 -15.5t-14.5 -45.5v-379h-106v527h102v-39q18 24 35 33q23 14 53 14q61 0 96 -41 q30 -34 30 -114v-380z"/>
<glyph glyph-name="ograve" horiz-adv-x="396" unicode="ò" d="M245 587h-74l-88 139h90zM254 264q0 129 -15 155q-14 22 -41 22t-41 -22q-15 -26 -15 -155q0 -130 15 -156q13 -21 41 -21q27 0 41 21q15 26 15 156zM360 264q0 -164 -37 -216q-40 -56 -125 -56t-125 56q-37 52 -37 216t37 216q40 55 125 55t125 -55q37 -52 37 -216z"/>
<glyph glyph-name="oacute" horiz-adv-x="396" unicode="ó" d="M316 726l-88 -139h-74l72 139h90zM254 264q0 129 -15 155q-14 22 -41 22t-41 -22q-15 -26 -15 -155q0 -130 15 -156q13 -21 41 -21q27 0 41 21q15 26 15 156zM360 264q0 -164 -37 -216q-40 -56 -125 -56t-125 56q-37 52 -37 216t37 216q40 55 125 55t125 -55 q37 -52 37 -216z"/>
<glyph glyph-name="ocircumflex" horiz-adv-x="396" unicode="ô" d="M339 587h-82l-59 82l-59 -82h-82l99 139h84zM254 264q0 129 -15 155q-14 22 -41 22t-41 -22q-15 -26 -15 -155q0 -130 15 -156q13 -21 41 -21q27 0 41 21q15 26 15 156zM360 264q0 -164 -37 -216q-40 -56 -125 -56t-125 56q-37 52 -37 216t37 216q40 55 125 55t125 -55 q37 -52 37 -216z"/>
<glyph glyph-name="otilde" horiz-adv-x="396" unicode="õ" d="M345 642q-46 -47 -90 -47q-30 0 -61 17q-25 15 -44 15q-23 0 -46 -23l-46 46q47 47 89 47q33 0 62 -17q25 -15 44 -15q23 0 45 23zM254 264q0 129 -15 155q-14 22 -41 22t-41 -22q-15 -26 -15 -155q0 -130 15 -156q13 -21 41 -21q27 0 41 21q15 26 15 156zM360 264 q0 -164 -37 -216q-40 -56 -125 -56t-125 56q-37 52 -37 216t37 216q40 55 125 55t125 -55q37 -52 37 -216z"/>
<glyph glyph-name="odieresis" horiz-adv-x="396" unicode="ö" d="M160 597h-99v100h99v-100zM336 597h-100v100h100v-100zM254 264q0 129 -15 155q-14 22 -41 22t-41 -22q-15 -26 -15 -155q0 -130 15 -156q13 -21 41 -21q27 0 41 21q15 26 15 156zM360 264q0 -164 -37 -216q-40 -56 -125 -56t-125 56q-37 52 -37 216t37 216q40 55 125 55 t125 -55q37 -52 37 -216z"/>
<glyph glyph-name="divide" horiz-adv-x="457" unicode="÷" d="M291 403h-124v123h124v-123zM291 32h-124v123h124v-123zM413 229h-369v101h369v-101z"/>
<glyph glyph-name="oslash" horiz-adv-x="394" unicode="ø" d="M255 264q0 49 -3 59l-91 -225q14 -16 37 -16q27 0 41 23q16 27 16 159zM235 429q-14 16 -37 16q-28 0 -41 -22q-16 -27 -16 -159q0 -45 3 -60zM367 571l-41 -95q34 -50 34 -212q0 -164 -37 -216q-40 -56 -125 -56q-47 0 -77 15l-21 -51h-71l41 96q-34 50 -34 212 q0 164 37 216q40 55 125 55q47 0 77 -15l21 51h71z"/>
<glyph glyph-name="ugrave" horiz-adv-x="417" unicode="ù" d="M254 587h-74l-88 139h90zM365 0h-101v40q-17 -23 -36 -33q-25 -15 -53 -15q-61 0 -96 41q-30 34 -30 114v380h106v-379q0 -30 14.5 -45.5t37.5 -15.5t37.5 15.5t14.5 45.5v379h106v-527z"/>
<glyph glyph-name="uacute" horiz-adv-x="417" unicode="ú" d="M325 726l-88 -139h-74l72 139h90zM365 0h-101v40q-17 -23 -36 -33q-25 -15 -53 -15q-61 0 -96 41q-30 34 -30 114v380h106v-379q0 -30 14.5 -45.5t37.5 -15.5t37.5 15.5t14.5 45.5v379h106v-527z"/>
<glyph glyph-name="ucircumflex" horiz-adv-x="417" unicode="û" d="M348 587h-82l-59 82l-59 -82h-82l99 139h84zM365 0h-101v40q-17 -23 -36 -33q-25 -15 -53 -15q-61 0 -96 41q-30 34 -30 114v380h106v-379q0 -30 14.5 -45.5t37.5 -15.5t37.5 15.5t14.5 45.5v379h106v-527z"/>
<glyph glyph-name="udieresis" horiz-adv-x="417" unicode="ü" d="M169 597h-99v100h99v-100zM345 597h-100v100h100v-100zM365 0h-101v40q-17 -23 -36 -33q-25 -15 -53 -15q-61 0 -96 41q-30 34 -30 114v380h106v-379q0 -30 14.5 -45.5t37.5 -15.5t37.5 15.5t14.5 45.5v379h106v-527z"/>
<glyph glyph-name="yacute" horiz-adv-x="382" unicode="ý" d="M311 726l-88 -139h-74l72 139h90zM377 527l-148 -594q-18 -73 -65.5 -95.5t-131.5 -22.5v94q28 1 43 3.5t30 15t21 36.5l9 37l-131 526h117l70 -359l69 359h117z"/>
<glyph glyph-name="thorn" horiz-adv-x="411" unicode="þ" d="M268 264q0 134 -17 156q-16 21 -40 21q-21 0 -36 -15q-16 -16 -16 -49v-227q0 -31 16 -49q14 -14 36 -14q25 0 40 20q17 22 17 157zM374 264q0 -99 -7 -150.5t-31 -80.5q-33 -41 -92 -41q-29 0 -54 14q-17 11 -31 28v-219h-106v897h102v-224q10 17 35 33q25 14 54 14 q59 0 92 -41q24 -29 31 -80.5t7 -149.5z"/>
<glyph glyph-name="OE" horiz-adv-x="642" unicode="Œ" d="M309 356q0 107 -4.5 159.5t-19.5 76.5q-17 27 -54 27q-36 0 -53 -27q-25 -40 -25 -236t25 -236q17 -27 53 -27q37 0 54 27q15 24 19.5 76.5t4.5 159.5zM604 0h-288v27q-35 -35 -90 -35q-86 0 -133 60q-31 40 -41.5 112.5t-10.5 191.5q0 123 10 194t42 110q48 60 133 60 q57 0 90 -35v27h288v-101h-187v-202h161v-101h-161v-207h187v-101z"/>
<glyph glyph-name="oe" horiz-adv-x="613" unicode="œ" d="M472 311q0 87 -15 109q-15 21 -41 21q-27 0 -40 -21q-16 -21 -16 -109h112zM254 264q0 129 -15 155q-14 22 -41 22t-41 -22q-15 -26 -15 -155t15 -156q13 -21 41 -21q27 0 41 21q15 27 15 156zM578 233h-218q0 -100 16 -125q14 -21 41 -21t41 20q12 16 12 48h106 q-3 -77 -45 -121q-38 -42 -114 -42q-53 0 -91 31q-7 5 -17 19q-7 -12 -18 -20q-38 -30 -93 -30q-85 0 -125 56q-37 50 -37 216q0 164 37 216q40 55 125 55q58 0 95 -31q9 -7 16 -19q6 11 18 20q39 30 89 30q71 0 113 -42q29 -29 39 -91t10 -169z"/>
<glyph glyph-name="Scaron" horiz-adv-x="442" unicode="Š" d="M370 897l-99 -140h-83l-99 140h81l59 -82l60 82h81zM404 197q0 -112 -46 -157q-49 -47 -139 -47q-91 0 -138 47q-46 46 -46 153h112q0 -57 20 -80q17 -19 52 -19q37 0 54 20q19 22 19 79t-12.5 78.5t-54.5 38.5l-85 35q-55 23 -77 60.5t-22 118.5q0 99 58 151 q49 43 122 43q83 0 128 -43q50 -49 50 -155h-112q0 54 -17 76q-16 21 -50 21q-30 0 -48 -20q-19 -22 -19 -70q0 -44 11 -62.5t48 -33.5l84 -34q63 -26 85.5 -68t22.5 -132z"/>
<glyph glyph-name="scaron" horiz-adv-x="381" unicode="š" d="M335 724l-99 -140h-84l-99 140h82l59 -82l59 82h82zM352 152q0 -70 -47 -117q-43 -43 -115 -43q-75 0 -116 43q-47 49 -47 119h105q0 -32 18 -50q15 -16 40 -16t41 15q15 14 15 42q0 23 -11 39q-12 18 -41 30l-70 31q-54 24 -77 61q-17 27 -17 72q0 65 46 113 q44 44 114 44q69 0 111 -40q45 -43 45 -117h-104q0 32 -15 48t-37 16q-24 0 -39 -15t-15 -40q0 -19 8 -31q11 -18 39 -30l70 -30q54 -24 77 -58q22 -31 22 -86z"/>
<glyph glyph-name="Ydieresis" horiz-adv-x="389" unicode="Ÿ" d="M158 770h-100v100h100v-100zM333 770h-100v100h100v-100zM388 712l-138 -433v-279h-112v279l-138 433h124l70 -282l71 282h123z"/>
<glyph glyph-name="circumflex" horiz-adv-x="396" unicode="ˆ" d="M339 587h-82l-59 82l-59 -82h-82l99 139h84z"/>
<glyph glyph-name="tilde" horiz-adv-x="396" unicode="˜" d="M345 642q-46 -47 -90 -47q-30 0 -61 17q-25 15 -44 15q-23 0 -46 -23l-46 46q47 47 89 47q33 0 62 -17q25 -15 44 -15q23 0 45 23z"/>
<glyph glyph-name="uni0394" horiz-adv-x="468" unicode="Δ" d="M324 101l-90 439l-90 -439h180zM462 0h-457l175 712h109z"/>
<glyph glyph-name="uni03BC" horiz-adv-x="421" unicode="μ" d="M367 0h-102v40q-18 -24 -35 -33q-25 -15 -56 -15q-16 0 -22 8v-185h-102v712h106v-379q0 -29 15 -45t38 -16t37.5 15.5t14.5 45.5v379h106v-527z"/>
<glyph glyph-name="pi" horiz-adv-x="436" unicode="π" d="M376 527v-527h-106v439h-104v-439h-106v527h316z"/>
<glyph glyph-name="endash" horiz-adv-x="457" unicode="–" d="M413 238h-369v101h369v-101z"/>
<glyph glyph-name="emdash" horiz-adv-x="711" unicode="—" d="M665 238h-618v101h618v-101z"/>
<glyph glyph-name="quoteleft" horiz-adv-x="229" unicode="‘" d="M172 588h-115v124l115 85v-209z"/>
<glyph glyph-name="quotesinglbase" horiz-adv-x="229" unicode="‚" d="M172 0l-115 -85v209h115v-124z"/>
<glyph glyph-name="quotedblleft" horiz-adv-x="418" unicode="“" d="M172 588h-115v124l115 85v-209zM361 588h-116v124l116 85v-209z"/>
<glyph glyph-name="quotedblright" horiz-adv-x="418" unicode="”" d="M172 588l-115 -86v210h115v-124zM361 588l-116 -86v210h116v-124z"/>
<glyph glyph-name="dagger" horiz-adv-x="449" unicode="†" d="M405 439h-131v-439h-99v439h-131v88h131v185h99v-185h131v-88z"/>
<glyph glyph-name="daggerdbl" horiz-adv-x="449" unicode="‡" d="M405 0h-131v-185h-99v185h-131v89h131v350h-131v88h131v185h99v-185h131v-88h-131v-350h131v-89z"/>
<glyph glyph-name="ellipsis" horiz-adv-x="654" unicode="…" d="M179 0h-123v123h123v-123zM389 0h-123v123h123v-123zM599 0h-123v123h123v-123z"/>
<glyph glyph-name="perthousand" horiz-adv-x="1050" unicode="‰" d="M598 114v129q0 45 -40 45t-40 -45v-129q0 -45 40 -45t40 45zM917 114v129q0 45 -40 45q-41 0 -41 -45v-129q0 -45 41 -45q40 0 40 45zM214 469v129q0 45 -40 45q-41 0 -41 -45v-129q0 -45 41 -45q40 0 40 45zM532 712l-248 -712h-82l248 712h82zM1003 112 q0 -57 -36 -88.5t-90 -31.5t-90.5 31.5t-36.5 88.5v133q0 57 36.5 88.5t90.5 31.5t90 -31.5t36 -88.5v-133zM301 467q0 -57 -36.5 -88.5t-90.5 -31.5t-90.5 31.5t-36.5 88.5v133q0 57 36.5 88.5t90.5 31.5t90.5 -31.5t36.5 -88.5v-133zM685 112q0 -57 -36.5 -88.5 t-90.5 -31.5t-90.5 31.5t-36.5 88.5v133q0 57 36.5 88.5t90.5 31.5t90.5 -31.5t36.5 -88.5v-133z"/>
<glyph glyph-name="guilsinglleft" horiz-adv-x="231" unicode="‹" d="M185 27l-161 249l161 248v-158l-61 -90l61 -92v-157z"/>
<glyph glyph-name="guilsinglright" horiz-adv-x="231" unicode="›" d="M207 276l-160 -249v157l60 92l-60 90v158z"/>
<glyph glyph-name="fraction" horiz-adv-x="188" unicode="⁄" d="M258 712l-246 -712h-82l246 712h82z"/>
<glyph glyph-name="Euro" horiz-adv-x="498" unicode="€" d="M459 189q-3 -101 -59 -152q-50 -45 -123 -45q-84 0 -137 60q-47 53 -50 183h-58v81h56v80h-56v81h58q3 129 50 183q53 60 137 60q76 0 125 -46q54 -51 57 -150h-112q-2 95 -70 95q-38 0 -55 -27q-18 -28 -19 -115h106v-81h-109v-80h109v-81h-106q1 -88 20 -115 q18 -27 54 -27q68 0 70 96h112z"/>
<glyph glyph-name="trademark" horiz-adv-x="631" unicode="™" d="M240 647h-73v-372h-70v372h-72v65h215v-65zM581 275h-70v263l-56 -171h-40l-55 168v-260h-70v437h63l82 -225l83 225h63v-437z"/>
<glyph glyph-name="arrowleft" horiz-adv-x="719" unicode="←" d="M672 235h-463l210 -208h-136l-259 258l259 258h136l-210 -207h463v-101z"/>
<glyph glyph-name="arrowup" horiz-adv-x="719" unicode="↑" d="M618 225l-208 209v-463h-101v463l-208 -209v136l258 258l259 -258v-136z"/>
<glyph glyph-name="arrowright" horiz-adv-x="719" unicode="→" d="M695 285l-259 -258h-136l210 208h-463v101h463l-210 207h136z"/>
<glyph glyph-name="arrowdown" horiz-adv-x="719" unicode="↓" d="M618 210l-259 -259l-258 259v136l208 -210v463h101v-463l208 210v-136z"/>
<glyph glyph-name="partialdiff" horiz-adv-x="412" unicode="∂" d="M254 245q0 113 -16 139q-12 20 -39 20q-28 0 -40 -20q-16 -26 -16 -139q0 -116 16 -139q12 -19 40 -19q27 0 39 19q16 23 16 139zM360 264q0 -164 -38 -217q-39 -55 -123 -55q-83 0 -124 52q-38 50 -38 201q0 92 7 140t31 75q33 39 93 39q28 0 53 -14q23 -13 32 -27v63 q0 62 -14 82q-17 22 -45 22q-35 0 -60 -28l-69 67q52 55 134 55q76 0 114 -39q25 -24 36 -58t11 -111v-247z"/>
<glyph glyph-name="product" horiz-adv-x="483" unicode="∏" d="M423 -190h-112v849h-139v-849h-112v950h363v-950z"/>
<glyph glyph-name="summation" horiz-adv-x="392" unicode="∑" d="M353 -192h-322v84l141 404l-136 380v84h317v-101h-199l106 -315v-102l-111 -333h204v-101z"/>
<glyph glyph-name="minus" horiz-adv-x="457" unicode="−" d="M413 238h-369v101h369v-101z"/>
<glyph glyph-name="radical" horiz-adv-x="492" unicode="√" d="M469 611h-83l-143 -611h-117l-122 522h122l58 -357l101 547h184v-101z"/>
<glyph glyph-name="infinity" horiz-adv-x="655" unicode="∞" d="M259 285q-14 17 -22.5 26t-21 16.5t-25.5 7.5q-21 0 -35 -13.5t-14 -36.5t14 -36t35 -13q29 0 69 49zM514 285q0 23 -14 36.5t-35 13.5q-13 0 -25.5 -7.5t-21 -16.5t-22.5 -26q40 -49 69 -49q21 0 35 13t14 36zM612 288q0 -63 -38.5 -104t-108.5 -41q-73 0 -137 72 q-64 -72 -138 -72q-70 0 -108.5 41t-38.5 104t38.5 104t108.5 41q73 0 138 -73q65 73 137 73q70 0 108.5 -41t38.5 -104z"/>
<glyph glyph-name="approxequal" horiz-adv-x="457" unicode="≈" d="M434 189q-66 -66 -126 -66q-39 0 -88 26q-36 19 -66 19q-32 0 -65 -33l-66 64q66 66 126 66q42 0 89 -25q38 -20 65 -20q33 0 66 33zM434 371q-66 -66 -126 -66q-39 0 -88 26q-36 19 -66 19q-33 0 -66 -33l-65 64q66 66 126 66q42 0 89 -25q38 -20 65 -20q33 0 66 33z "/>
<glyph glyph-name="notequal" horiz-adv-x="457" unicode="≠" d="M424 148h-235l-76 -110l-78 51l42 59h-43v101h110l57 79h-167v102h235l76 110l77 -52l-41 -58h43v-102h-111l-57 -79h168v-101z"/>
<glyph glyph-name="lessequal" d="M367 -11l-333 195v111l333 -194v-112zM367 191l-333 194v74l333 194v-116l-203 -115l203 -115v-116z" unicode="≤"/>
<glyph glyph-name="greaterequal" d="M367 184l-333 -195v112l333 194v-111zM367 385l-333 -194v116l203 115l-203 115v116l333 -194v-74z" unicode="≥"/>
<glyph glyph-name="dotmath" horiz-adv-x="457" unicode="⋅" d="M308 209h-160v160h160v-160z"/>
<glyph glyph-name="lozenge" horiz-adv-x="494" unicode="◊" d="M336 334l-89 125l-89 -125l89 -125zM449 334l-202 -281l-202 281l202 281z"/>
</font>
</defs>
</svg>
