<svg xmlns="http://www.w3.org/2000/svg" id="Layer_1" data-name="Layer 1" viewBox="0 0 288 90"><defs><style>.cls-1{fill:#ce262d;}.cls-2{fill:none;stroke:#fff;stroke-miterlimit:10;stroke-width:0.97px;}.cls-3,.cls-4{fill:#fff;}.cls-4{font-size:20px;font-family:Montserrat-Bold, Montserrat;}.cls-5{font-weight:700;}.cls-6{letter-spacing:0em;}.cls-7{letter-spacing:-0.01em;}.cls-8{letter-spacing:0em;}.cls-9{letter-spacing:0em;}.cls-10{letter-spacing:0em;}.cls-11{letter-spacing:0em;}.cls-12{letter-spacing:0em;}.cls-13{letter-spacing:-0.02em;}.cls-14{letter-spacing:0.01em;}.cls-15{letter-spacing:-0.01em;}.cls-16{letter-spacing:0em;}.cls-17{font-family:Montserrat-Regular, Montserrat;}.cls-18{letter-spacing:-0.03em;}.cls-19{letter-spacing:-0.01em;}.cls-20{letter-spacing:-0.01em;}.cls-21{letter-spacing:-0.01em;}.cls-22{letter-spacing:-0.02em;}.cls-23{letter-spacing:-0.02em;}.cls-24{letter-spacing:0em;}.cls-25{letter-spacing:-0.09em;}</style></defs><title>Artboard 1</title><rect class="cls-1" width="288" height="90"/><circle class="cls-2" cx="50.5" cy="46.86" r="31.5"/><polyline class="cls-2" points="23.74 63.49 44.85 63.49 44.85 68.45"/><polyline class="cls-2" points="21.23 58.54 39.9 58.54 39.9 63.49"/><polyline class="cls-2" points="19.72 53.58 34.94 53.58 34.94 58.54"/><polyline class="cls-2" points="19.05 48.62 29.98 48.62 29.98 53.58"/><polyline class="cls-2" points="19.16 43.66 25.03 43.66 25.03 48.62"/><line class="cls-2" x1="29.99" y1="48.62" x2="81.95" y2="48.62"/><line class="cls-2" x1="27.56" y1="68.45" x2="73.44" y2="68.45"/><polyline class="cls-2" points="25.03 43.91 32.76 35.56 38.95 42.26 43.42 37.41 47.45 41.77 60.95 27.17 71.34 38.41 71.34 38.41 74.03 35.51 81.87 43.99"/><path class="cls-3" d="M81.87,44,74,35.51v3.67l5.67,6.13h-2l-6.38-6.91L60.95,27.17v8.56l5.5,5.95H55.32l6.41,6.93H81.95c0-.58.05-1.17.05-1.76C82,45.89,82,44.94,81.87,44Z"/><polygon class="cls-3" points="46.55 42.73 47.45 41.77 43.42 37.41 43.42 40.37 44.68 41.73 41.57 45.1 40.39 43.82 32.76 35.56 32.76 38.72 35.8 42.02 33.37 42.02 39.46 48.62 41.12 48.62 42.54 47.08 42.54 47.08 42.6 47.01 42.97 46.61 42.97 46.61 46.56 42.73 46.55 42.73"/><line class="cls-2" x1="47.44" y1="41.77" x2="41.12" y2="48.62"/><path class="cls-3" d="M57.23,30.4c-.16-1-2.06-1.74-2.06-1.74,1-2.21-.16-4.66-.79-6a13.44,13.44,0,0,0-2-2.73,2,2,0,0,0-.55-.43l-1.2-.63c.55-.95-.4-2.13-.4-2.13-.16-.95-1.26-1.26-1.26-1.26a2,2,0,0,0-.24-1.18A2.15,2.15,0,0,0,47,13.21l-1.68-.09a1.78,1.78,0,0,0-1,.27l-2.44,1.55a2.49,2.49,0,0,0-1-2.4c-2.06-1.58-4.51-.71-5.77-.08s-.87,2.61-1.26,3.08a3.09,3.09,0,0,1-1.44.6.34.34,0,0,0-.16.57l.61.59c.56.53,1.23.28,1.83.22a.6.6,0,0,1,.67.56,2.15,2.15,0,0,1-.35,1.41.08.08,0,0,0,0,.08.19.19,0,0,0,.24.1c.16-.07.32-.18.45-.16s.09.32.15.65c.1.48.5.77.59.95s.17.48.43.59a.75.75,0,0,0,.54-.12l1.32-.84a.38.38,0,0,1,.48.06l.36.4c-.41.27-1.6.83-1.85,1.29-.45.81.06,1.61-.52,2.45A14,14,0,0,0,36,27.06a1.42,1.42,0,0,1-1.21.74c-.47.11-.42.79-.42.79-.53-.16-1.11.74-1.37,1a10.87,10.87,0,0,1-2.85.58c-.53.05-.58-.16-1.26-.11s-.69.42-.9,0a.67.67,0,0,0-.16-.2V25.48a.13.13,0,0,0-.13-.13h-.28a.14.14,0,0,0-.14.14v4.15h0a.39.39,0,0,0-.48.32c0,.09,0,.11.07.16s0,.46-.6.52-.21,1.21-.26,1.79.26,1.32.69,1.32a4.05,4.05,0,0,1,.62.08V61.39c0,.15-.06.39-.21.42l-.83.09a.13.13,0,0,0-.11.16h0a.12.12,0,0,0,.09.09l.79.16a.36.36,0,0,1,.29.35v.87a.07.07,0,0,0,.07.07h.23a0,0,0,0,0,0,0l.11-.91a.34.34,0,0,1,.26-.29l.73-.17a.14.14,0,0,0,.1-.16V62a.1.1,0,0,0-.08-.08l-.68-.16a.37.37,0,0,1-.29-.36l0-27.53.16,0c.47-.16.74.63.9.69a2.75,2.75,0,0,0,1.26-.37c.53-.26,6.32-.74,6.9-.95s2.37-2.58,2.64-2.58.84,2,1.26,3.11A4,4,0,0,1,40.81,36a3.47,3.47,0,0,0,.16.53l-.34.61.63.47L39.07,39l-5.91,5.09a.77.77,0,0,0-.28.54c0,.5-.17,2.23.34,2.57a5.57,5.57,0,0,0,1.47.35c.35,1.59,1.62,5.58,1.79,6s1.82,4.84,1.82,4.84l-.15-.06a.15.15,0,0,0-.21.13l0,.55a.54.54,0,0,1-.08.25c-1.18,1.91-4,2.27-4.67,2.22a1.34,1.34,0,0,0-.93.32.56.56,0,0,0-.22.56v.24c.05.35.33.35.62.54s.37.17.55.28a4.58,4.58,0,0,0,1.71.23l3.43-.35.19,0,.51-.16a.78.78,0,0,1,.43,0l.89.22.2,0,1.6-.08.08,0a.43.43,0,0,0,.2-.41l-.27-2.58a2,2,0,0,0-.14-.55l-.38-.94a.21.21,0,0,0-.2-.13h-.24s0-6.74-.16-8.07a9,9,0,0,0-1-2.33h.13l.4-.55.05-.79.38-.14a1.23,1.23,0,0,0,.68-.62l.5-1.05,1.61-1,.84-.47.31,2.1a28,28,0,0,0,.8,3.77,36.13,36.13,0,0,1,.67,5.28.64.64,0,0,0,.5.57l.28.06a1.43,1.43,0,0,0,.41,0l2.17-.15a14.54,14.54,0,0,0,.74,3.19c.19.44,1.81,4.84,1.81,4.84l-.21-.08a.13.13,0,0,0-.18.12v.72c-1.14,2-4,2.38-4.74,2.33A1.55,1.55,0,0,0,46,67s-.11.42,0,.57a5.75,5.75,0,0,0,1.27.81,6.59,6.59,0,0,0,1.71.23l3.52-.35h0l.73-.23a.27.27,0,0,1,.15,0l1.07.27h.11l1.57-.07a.24.24,0,0,0,.14-.05l.19-.15s-.22-2-.29-2.81A2.09,2.09,0,0,0,56,64.6l-.35-.88a.32.32,0,0,0-.3-.2h-.16s-.12-5.91-.12-6.6a11.4,11.4,0,0,0-.67-2.28l.18,0,.13-.74-.83-2.69L52.8,45.27l-.47-2a2.36,2.36,0,0,0-.4-1.74l-.16-1s.44.11.61-.16.16-1.08.42-1.26c.47-.32-.24-2.13-.24-2.13.63-.32,1.34-.71,1.34-.71a1.73,1.73,0,0,0,2.53.79c.4-.47-.24-2.37-.24-2.37C58,34,57.39,31.43,57.23,30.4Z"/><text class="cls-4" transform="translate(96.25 40.04)"><tspan class="cls-5"><tspan class="cls-6">B</tspan><tspan class="cls-7" x="14.3" y="0">E</tspan><tspan class="cls-8" x="27.67" y="0">S</tspan><tspan class="cls-9" x="40.67" y="0">T </tspan><tspan class="cls-10" x="57.55" y="0">I</tspan><tspan class="cls-11" x="63.84" y="0">N</tspan><tspan class="cls-12" x="79.52" y="0">C</tspan><tspan x="93.28" y="0">A </tspan><tspan class="cls-13" x="113.34" y="0">T</tspan><tspan class="cls-14" x="125.28" y="0">R</tspan><tspan class="cls-15" x="139.95" y="0">A</tspan><tspan class="cls-16" x="155.2" y="0">I</tspan><tspan x="161.49" y="0">L</tspan></tspan><tspan class="cls-17"><tspan class="cls-18" x="0" y="24">T</tspan><tspan class="cls-19" x="10.94" y="24">O</tspan><tspan class="cls-20" x="26.97" y="24">U</tspan><tspan class="cls-9" x="42.04" y="24">R </tspan><tspan class="cls-21" x="61.66" y="24">O</tspan><tspan class="cls-22" x="77.69" y="24">P</tspan><tspan class="cls-23" x="90.83" y="24">E</tspan><tspan class="cls-24" x="103.58" y="24">R</tspan><tspan class="cls-25" x="118.13" y="24">A</tspan><tspan class="cls-18" x="131.18" y="24">T</tspan><tspan class="cls-21" x="142.12" y="24">O</tspan><tspan x="158.15" y="24">R</tspan></tspan></text><script xmlns=""/></svg>