<?xml version="1.0" encoding="utf-8"?>
<!-- Generator: Adobe Illustrator 20.1.0, SVG Export Plug-In . SVG Version: 6.00 Build 0)  -->
<svg version="1.1" id="Layer_1" xmlns="http://www.w3.org/2000/svg" xmlns:xlink="http://www.w3.org/1999/xlink" x="0px" y="0px"
	 viewBox="0 0 921.1 295.8" style="enable-background:new 0 0 921.1 295.8;" xml:space="preserve">
<style type="text/css">
	.st0{fill:#482F8A;}
	.st1{fill:#FFFFFF;}
	.st2{clip-path:url(#SVGID_2_);fill:#FFFFFF;}
	.st3{clip-path:url(#SVGID_2_);fill:#231F20;}
	.st4{clip-path:url(#SVGID_2_);fill:#4A0D66;}
</style>
<rect class="st0" width="921.1" height="295.8"/>
<g>
	<path class="st1" d="M308,87.8v-9.3h25.3v31.7c0,5.8-1.5,10.1-4.5,13c-3,2.9-6.8,4.3-11.5,4.3c-5.8,0-10.9-2.2-15.3-6.7l5.6-7.8
		c2.9,3.1,6,4.7,9.2,4.7c1.5,0,2.8-0.6,3.9-1.8c1.1-1.2,1.6-3,1.6-5.3V87.8H308z"/>
	<path class="st1" d="M379.8,127l-4.5-10.5h-20.3l-4.5,10.5h-11.5l21-48.5h10.5l21,48.5H379.8z M365.1,92.9L359,107h12.2L365.1,92.9
		z"/>
	<path class="st1" d="M431.6,78.5h10.8V127h-10.8l-23.1-30.4V127h-10.8V78.5h10.1l23.8,31.3V78.5z"/>
	<path class="st1" d="M490.1,78.5v9.7h-24.2v10h21.7v9.2h-21.7v10.1h24.9v9.6h-35.8V78.5H490.1z"/>
	<path class="st1" d="M551.7,102.3h10.9v17.2c-4.8,5.4-11.5,8.1-20,8.1c-7.1,0-13.1-2.4-18-7.1c-4.8-4.7-7.3-10.7-7.3-17.9
		c0-7.2,2.5-13.2,7.4-18c4.9-4.8,10.9-7.2,17.8-7.2c7,0,13,2.3,18.2,6.9l-5.6,8.1c-2.2-1.9-4.2-3.2-6-3.9c-1.8-0.7-3.8-1.1-5.9-1.1
		c-4.1,0-7.6,1.4-10.4,4.2c-2.8,2.8-4.2,6.5-4.2,11.1c0,4.6,1.4,8.3,4.1,11c2.7,2.8,5.9,4.1,9.7,4.1c3.7,0,6.9-0.7,9.4-2.2V102.3z"
		/>
	<path class="st1" d="M613.8,120.3c-4.9,4.8-11,7.2-18.1,7.2s-13.2-2.4-18.1-7.2c-4.9-4.8-7.4-10.8-7.4-17.9
		c0-7.1,2.5-13.1,7.4-17.9c4.9-4.8,10.9-7.2,18.1-7.2s13.2,2.4,18.1,7.2c4.9,4.8,7.4,10.8,7.4,17.9
		C621.1,109.6,618.7,115.5,613.8,120.3z M610.1,102.5c0-4.3-1.4-8-4.2-11.1c-2.8-3.1-6.2-4.6-10.2-4.6s-7.5,1.5-10.2,4.6
		c-2.8,3.1-4.2,6.7-4.2,11.1c0,4.3,1.4,8,4.2,11c2.8,3,6.2,4.5,10.2,4.5s7.5-1.5,10.2-4.5C608.7,110.5,610.1,106.8,610.1,102.5z"/>
	<path class="st1" d="M671.8,120.3c-4.9,4.8-11,7.2-18.1,7.2s-13.2-2.4-18.1-7.2c-4.9-4.8-7.4-10.8-7.4-17.9
		c0-7.1,2.5-13.1,7.4-17.9c4.9-4.8,10.9-7.2,18.1-7.2s13.2,2.4,18.1,7.2c4.9,4.8,7.4,10.8,7.4,17.9
		C679.1,109.6,676.7,115.5,671.8,120.3z M668.1,102.5c0-4.3-1.4-8-4.2-11.1c-2.8-3.1-6.2-4.6-10.2-4.6c-4.1,0-7.5,1.5-10.2,4.6
		c-2.8,3.1-4.2,6.7-4.2,11.1c0,4.3,1.4,8,4.2,11c2.8,3,6.2,4.5,10.2,4.5c4.1,0,7.5-1.5,10.2-4.5
		C666.7,110.5,668.1,106.8,668.1,102.5z"/>
	<path class="st1" d="M726,84.8c4.6,4.2,6.9,10.1,6.9,17.7c0,7.5-2.3,13.5-6.8,17.9c-4.5,4.4-11.4,6.6-20.7,6.6h-16.6V78.5h17.2
		C714.7,78.5,721.4,80.6,726,84.8z M718,113.7c2.7-2.5,4-6.1,4-10.9c0-4.8-1.3-8.4-4-11c-2.7-2.6-6.7-3.9-12.3-3.9h-6v29.5h6.9
		C711.6,117.4,715.4,116.2,718,113.7z"/>
	<path class="st1" d="M777.3,127l-4.5-10.5h-20.3l-4.5,10.5h-11.5l21-48.5h10.5l21,48.5H777.3z M762.7,92.9l-6.1,14.1h12.2
		L762.7,92.9z"/>
	<path class="st1" d="M795.2,127V78.5H806v38.9h20.7v9.7H795.2z"/>
	<path class="st1" d="M835.3,127V78.5h10.8v38.9h20.7v9.7H835.3z"/>
	<path class="st1" d="M328.5,200.8c5.3,0,9.7-2.1,13.1-6.3l6.9,7.2c-5.5,6.2-12,9.3-19.5,9.3s-13.6-2.4-18.5-7.1
		c-4.8-4.7-7.3-10.7-7.3-17.9c0-7.2,2.5-13.2,7.4-18s11-7.2,18.1-7.2c8,0,14.6,3,20,9.1l-6.7,7.6c-3.4-4.3-7.7-6.4-12.8-6.4
		c-4.1,0-7.6,1.3-10.5,4c-2.9,2.7-4.3,6.3-4.3,10.8c0,4.5,1.4,8.1,4.1,10.9C321.3,199.4,324.6,200.8,328.5,200.8z"/>
	<path class="st1" d="M398.3,203.7c-4.9,4.8-11,7.2-18.1,7.2s-13.2-2.4-18.1-7.2c-4.9-4.8-7.4-10.8-7.4-17.9
		c0-7.1,2.5-13.1,7.4-17.9c4.9-4.8,10.9-7.2,18.1-7.2s13.2,2.4,18.1,7.2c4.9,4.8,7.4,10.8,7.4,17.9
		C405.6,192.9,403.2,198.9,398.3,203.7z M394.6,185.8c0-4.3-1.4-8-4.2-11.1c-2.8-3.1-6.2-4.6-10.2-4.6c-4.1,0-7.5,1.5-10.2,4.6
		c-2.8,3.1-4.2,6.7-4.2,11.1c0,4.3,1.4,8,4.2,11c2.8,3,6.2,4.5,10.2,4.5c4.1,0,7.5-1.5,10.2-4.5
		C393.2,193.8,394.6,190.1,394.6,185.8z"/>
	<path class="st1" d="M415.4,210.4v-48.5h10.8v38.9h20.7v9.7H415.4z"/>
	<path class="st1" d="M455.6,210.4v-48.5h10.8v38.9h20.7v9.7H455.6z"/>
	<path class="st1" d="M530.7,161.8v9.7h-24.2v10h21.7v9.2h-21.7v10.1h24.9v9.6h-35.8v-48.5H530.7z"/>
	<path class="st1" d="M564.1,200.8c5.3,0,9.7-2.1,13.1-6.3l6.9,7.2c-5.5,6.2-12,9.3-19.5,9.3s-13.6-2.4-18.5-7.1
		c-4.8-4.7-7.3-10.7-7.3-17.9c0-7.2,2.5-13.2,7.4-18s11-7.2,18.1-7.2c8,0,14.6,3,20,9.1l-6.7,7.6c-3.4-4.3-7.7-6.4-12.8-6.4
		c-4.1,0-7.6,1.3-10.5,4c-2.9,2.7-4.3,6.3-4.3,10.8c0,4.5,1.4,8.1,4.1,10.9S560.2,200.8,564.1,200.8z"/>
	<path class="st1" d="M613.9,171.2v39.2h-10.8v-39.2h-13.8v-9.4h38.3v9.4H613.9z"/>
	<path class="st1" d="M636.3,161.8h10.8v48.5h-10.8V161.8z"/>
	<path class="st1" d="M700.6,203.7c-4.9,4.8-11,7.2-18.1,7.2s-13.2-2.4-18.1-7.2c-4.9-4.8-7.4-10.8-7.4-17.9
		c0-7.1,2.5-13.1,7.4-17.9c4.9-4.8,10.9-7.2,18.1-7.2s13.2,2.4,18.1,7.2c4.9,4.8,7.4,10.8,7.4,17.9
		C707.9,192.9,705.5,198.9,700.6,203.7z M696.9,185.8c0-4.3-1.4-8-4.2-11.1c-2.8-3.1-6.2-4.6-10.2-4.6s-7.5,1.5-10.2,4.6
		c-2.8,3.1-4.2,6.7-4.2,11.1c0,4.3,1.4,8,4.2,11c2.8,3,6.2,4.5,10.2,4.5s7.5-1.5,10.2-4.5C695.5,193.8,696.9,190.1,696.9,185.8z"/>
	<path class="st1" d="M751.8,161.8h10.8v48.5h-10.8l-23.1-30.4v30.4h-10.8v-48.5h10.1l23.8,31.3V161.8z"/>
</g>
<g>
	<defs>
		<rect id="SVGID_1_" x="19.8" y="21.6" width="240.3" height="252.5"/>
	</defs>
	<clipPath id="SVGID_2_">
		<use xlink:href="#SVGID_1_"  style="overflow:visible;"/>
	</clipPath>
	<path class="st2" d="M38.5,151.5c0-60.6,48.7-109.8,108.8-109.8s108.8,49.1,108.8,109.8c0,60.6-48.7,109.8-108.8,109.8
		S38.5,212.1,38.5,151.5 M165.1,74.2c-0.7,0-1.3,0-2,0.1c-4.2,0.4-8.4,0.9-12.6,1.4c-6.1,0.6-12,1.9-17.6,4.3
		c-10.3,4.4-17.8,11.7-22.4,22c-2.8,6.4-4.1,13.2-4.7,20.2c-0.1,1.4-0.1,1.4-1.7,1.5c-4,0.2-7.8,1-11.6,2.3
		c-6.1,2.2-11.5,5.6-15.7,10.5c-7.9,9.3-10.2,20.1-7.9,32c1.5,7.7,4.9,14.5,9.4,20.9c3.6,5.2,6.5,10.7,8,17c0.3,1.4,0.3,1.4,1.6,0.7
		c4.5-2.2,8.8-4.7,12.8-7.8c4.1-3.2,7.5-7.1,9.5-11.9c2.6-6,2.4-12.2,0.7-18.4c-0.9-3.4-2.6-6.7-3.3-10.1c-1.1-4.9-1.1-9.7,1.2-14.3
		c0.1-0.3,0.2-0.8,0.6-0.8c0.3,0,0.4,0.5,0.5,0.7c2.6,4.9,5.8,9.6,9.3,14c3.4,4.3,6.2,8.9,8.3,14c1.7,4.1,1.5,8.2-0.5,12.2
		c-1.3,2.7-3.2,5.1-5.5,7.1c-4.8,4.4-7.5,9.9-8.9,16.2c-0.3,1.4-0.3,1.4,1.1,1.7c8.2,1.7,16.3,3.8,24.3,6.4
		c11.8,3.8,23.2,8.6,34,14.6c1.3,0.7,1.5,0.7,1.7-0.8c0.7-4.2,0-8.3-1.8-12.2c-1.2-2.8-2.3-5.6-2.9-8.6c-0.7-3.8-0.4-7.4,2.1-10.6
		c0.9-1.2,1.6-2.4,2.4-3.7c1.8-2.7,3.6-5.4,5.1-8.3c2-4,5.2-6.7,9.5-8.3c2.7-1,5.5-1.2,8.3-1.8c3.5-0.7,7.1-1.5,9.9-3.9
		c1.9-1.6,2.8-3.6,2.3-6.1c-0.2-1-0.5-2-0.8-2.9c-0.3-1.2-0.2-2.2,0.6-3.3c1.5-2,1.4-2.7-0.2-4.5c-0.4-0.5-0.3-0.9,0-1.3
		c0.5-0.7,1.2-1.1,1.8-1.6c1.8-1.3,2.2-2.9,1.1-4.8c-1.4-2.5-0.8-5.1,1.6-6.7c1.2-0.8,2.4-1.5,3.5-2.5c1.3-1.1,1.5-2.3,0.7-3.8
		c-0.5-0.9-1.2-1.7-1.9-2.5c-1.6-1.5-3.1-3-4.5-4.7c-3.8-4.6-6.1-9.7-6.2-15.9c0-4.1-1.3-8.1-3.2-11.7c-1.9-3.7-4.8-6.5-8.2-8.8
		c-2-1.3-3.1-3.1-3.2-5.5c-0.1-1.7-0.4-3.2-1.1-4.8c-1.3-3.3-3.7-5.5-7.1-6.6c-2.2-0.7-4.5-0.8-6.8-0.5
		C171.6,74.2,168.4,74.1,165.1,74.2"/>
</g>
</svg>
