<?xml version="1.0" encoding="utf-8"?>
<!-- Generator: Adobe Illustrator 15.1.0, SVG Export Plug-In . SVG Version: 6.00 Build 0)  -->
<!DOCTYPE svg PUBLIC "-//W3C//DTD SVG 1.1//EN" "http://www.w3.org/Graphics/SVG/1.1/DTD/svg11.dtd">
<svg version="1.1" id="Layer_1" xmlns="http://www.w3.org/2000/svg" xmlns:xlink="http://www.w3.org/1999/xlink" x="0px" y="0px"
	 width="360px" height="20px" viewBox="0 0 360 20" enable-background="new 0 0 360 20" xml:space="preserve">
<g id="Layer_2" display="none">
	<rect x="-5" y="-6.667" display="inline" fill="#EEEEEE" width="368" height="33.333"/>
</g>
<g>
	<path fill="#FFFFFF" d="M80,8.562v2.89c0,0.104-0.035,0.205-0.104,0.301c-0.07,0.095-0.158,0.151-0.261,0.169l-2.409,0.364
		c-0.165,0.469-0.334,0.864-0.507,1.185c0.304,0.436,0.767,1.033,1.392,1.797c0.087,0.104,0.131,0.215,0.131,0.326
		c0,0.112-0.04,0.213-0.117,0.301c-0.234,0.32-0.665,0.789-1.29,1.404c-0.624,0.617-1.032,0.926-1.223,0.926
		c-0.104,0-0.218-0.041-0.34-0.119L73.477,16.7c-0.382,0.198-0.777,0.364-1.186,0.493c-0.139,1.182-0.264,1.988-0.377,2.423
		c-0.062,0.243-0.217,0.364-0.47,0.364h-2.89c-0.122,0-0.228-0.037-0.319-0.111c-0.091-0.072-0.141-0.167-0.149-0.279l-0.365-2.396
		c-0.425-0.139-0.814-0.297-1.171-0.479l-1.837,1.392c-0.085,0.078-0.195,0.119-0.324,0.119c-0.121,0-0.229-0.049-0.326-0.144
		c-1.094-0.991-1.81-1.72-2.148-2.188c-0.061-0.086-0.091-0.188-0.091-0.3c0-0.104,0.034-0.202,0.104-0.3
		c0.129-0.184,0.352-0.471,0.665-0.866c0.311-0.395,0.547-0.7,0.702-0.917c-0.235-0.435-0.412-0.863-0.533-1.289l-2.384-0.352
		c-0.113-0.018-0.205-0.072-0.272-0.163C60.035,11.615,60,11.514,60,11.4V8.51c0-0.104,0.035-0.205,0.105-0.301
		c0.067-0.095,0.151-0.151,0.246-0.169l2.423-0.364c0.122-0.398,0.291-0.8,0.507-1.198c-0.347-0.495-0.812-1.094-1.394-1.796
		c-0.085-0.104-0.129-0.209-0.129-0.313c0-0.088,0.038-0.187,0.116-0.3c0.226-0.312,0.652-0.778,1.283-1.399
		c0.629-0.621,1.039-0.931,1.23-0.931c0.112,0,0.226,0.044,0.338,0.129l1.796,1.394c0.384-0.199,0.777-0.364,1.186-0.493
		c0.139-1.182,0.266-1.988,0.378-2.423c0.061-0.243,0.216-0.365,0.469-0.365h2.89c0.122,0,0.229,0.038,0.319,0.11
		c0.091,0.074,0.143,0.169,0.15,0.281l0.364,2.396c0.425,0.139,0.816,0.298,1.171,0.48l1.85-1.392
		c0.078-0.08,0.183-0.118,0.313-0.118c0.112,0,0.221,0.044,0.325,0.129c1.12,1.035,1.836,1.771,2.149,2.214
		c0.059,0.07,0.091,0.165,0.091,0.287c0,0.104-0.036,0.203-0.104,0.3c-0.131,0.183-0.352,0.471-0.665,0.866
		c-0.312,0.395-0.547,0.7-0.702,0.917c0.226,0.435,0.402,0.86,0.533,1.276l2.384,0.364c0.111,0.017,0.203,0.072,0.273,0.163
		C79.965,8.347,80,8.449,80,8.562z M72.355,12.338c0.651-0.65,0.979-1.438,0.979-2.357c0-0.919-0.327-1.706-0.979-2.356
		C71.707,6.973,70.921,6.647,70,6.647c-0.92,0-1.705,0.325-2.356,0.977c-0.651,0.65-0.977,1.437-0.977,2.356
		c0,0.918,0.325,1.708,0.977,2.357c0.651,0.649,1.437,0.978,2.356,0.978C70.921,13.314,71.707,12.986,72.355,12.338z"/>
</g>
<g>
	<g>
		<path fill="#FFFFFF" d="M18.06,19.979c-0.548,0-1.011-0.195-1.377-0.582l-3.642-3.631c-1.356,0.853-2.87,1.283-4.506,1.283
			c-1.149,0-2.266-0.227-3.316-0.674c-1.045-0.443-1.963-1.055-2.726-1.818c-0.764-0.764-1.375-1.682-1.817-2.727
			C0.227,10.779,0,9.664,0,8.515c0-1.15,0.227-2.268,0.674-3.318C1.119,4.149,1.73,3.232,2.492,2.47
			c0.763-0.763,1.681-1.375,2.727-1.817c2.101-0.896,4.533-0.894,6.634,0c1.047,0.445,1.964,1.056,2.726,1.817
			c0.762,0.761,1.373,1.679,1.817,2.727c0.447,1.05,0.674,2.167,0.674,3.317c0,1.632-0.432,3.146-1.284,4.505l3.652,3.651
			C19.811,17.045,20,17.506,20,18.039c0,0.523-0.192,0.982-0.573,1.365C19.047,19.785,18.587,19.979,18.06,19.979z M13.157,14.536
			l4.208,4.194c0.38,0.401,0.98,0.41,1.388,0.002c0.202-0.203,0.296-0.424,0.296-0.693c0-0.281-0.09-0.501-0.284-0.695l-4.207-4.205
			l0.226-0.326c0.886-1.283,1.335-2.728,1.335-4.297c0-1.022-0.201-2.013-0.598-2.944c-0.397-0.936-0.94-1.752-1.615-2.427
			c-0.675-0.675-1.491-1.217-2.426-1.615c-1.865-0.793-4.023-0.795-5.888,0c-0.935,0.396-1.75,0.939-2.426,1.615
			C2.491,3.818,1.948,4.634,1.55,5.569C1.153,6.502,0.952,7.493,0.952,8.515c0,1.021,0.201,2.01,0.598,2.942
			c0.396,0.934,0.938,1.75,1.615,2.427c0.677,0.677,1.492,1.22,2.426,1.614c0.933,0.396,1.922,0.6,2.943,0.6
			c1.574,0,3.019-0.449,4.296-1.336L13.157,14.536z M8.534,14.119c-1.536,0-2.867-0.553-3.959-1.645
			C3.483,11.382,2.93,10.05,2.93,8.515c0-1.537,0.553-2.869,1.646-3.961C5.665,3.462,6.998,2.91,8.534,2.91
			c1.539,0,2.871,0.552,3.961,1.644c1.091,1.09,1.644,2.423,1.644,3.961c0,1.537-0.552,2.869-1.644,3.959
			C11.403,13.566,10.071,14.119,8.534,14.119z M8.534,3.862c-1.293,0-2.368,0.447-3.286,1.365C4.33,6.147,3.882,7.222,3.882,8.515
			c0,1.292,0.448,2.366,1.367,3.286s1.994,1.366,3.286,1.366c1.293,0,2.368-0.446,3.288-1.366c0.918-0.918,1.365-1.993,1.365-3.286
			s-0.447-2.37-1.365-3.288C10.905,4.309,9.828,3.862,8.534,3.862z"/>
	</g>
	<g>
		<path fill="#FFFFFF" d="M51.376,19.98h-2.753c-0.223,0-0.432-0.073-0.604-0.213c-0.185-0.146-0.298-0.359-0.316-0.599
			l-0.301-1.964c-0.222-0.08-0.433-0.165-0.634-0.258l-1.517,1.148c-0.268,0.25-0.874,0.295-1.239-0.062
			c-1.063-0.964-1.755-1.669-2.1-2.146c-0.117-0.168-0.177-0.361-0.177-0.563c0-0.203,0.064-0.394,0.19-0.566
			c0.122-0.173,0.34-0.454,0.646-0.84c0.191-0.244,0.354-0.451,0.483-0.624c-0.123-0.251-0.228-0.503-0.313-0.754l-1.976-0.291
			c-0.233-0.034-0.432-0.152-0.572-0.343C40.068,11.746,40,11.545,40,11.333V8.581c0-0.2,0.067-0.396,0.192-0.568
			c0.132-0.186,0.317-0.308,0.532-0.347l2.035-0.307c0.081-0.225,0.177-0.45,0.285-0.672c-0.297-0.407-0.672-0.883-1.138-1.448
			c-0.155-0.19-0.232-0.392-0.232-0.602c0-0.184,0.064-0.365,0.195-0.556c0.242-0.334,0.659-0.79,1.28-1.401
			c0.862-0.852,1.215-1.023,1.506-1.023c0.212,0,0.416,0.074,0.608,0.22l1.48,1.147c0.209-0.098,0.422-0.187,0.635-0.265
			c0.12-0.976,0.232-1.672,0.336-2.072c0.109-0.44,0.449-0.705,0.907-0.705h2.753c0.221,0,0.429,0.073,0.601,0.208
			c0.192,0.158,0.305,0.372,0.321,0.607l0.299,1.96c0.224,0.08,0.436,0.167,0.635,0.258l1.528-1.15
			c0.06-0.069,0.264-0.208,0.585-0.208c0.215,0,0.427,0.079,0.61,0.23c1.125,1.039,1.816,1.752,2.136,2.202
			c0.066,0.078,0.174,0.266,0.174,0.549c0,0.196-0.063,0.385-0.188,0.561c-0.129,0.179-0.344,0.46-0.648,0.845
			c-0.194,0.246-0.356,0.454-0.485,0.626c0.117,0.248,0.221,0.495,0.31,0.74l1.983,0.303c0.227,0.034,0.422,0.15,0.565,0.335
			C59.933,8.221,60,8.42,60,8.629v2.752c0,0.197-0.065,0.393-0.187,0.564c-0.146,0.195-0.336,0.313-0.556,0.354l-2.024,0.305
			c-0.092,0.24-0.185,0.461-0.278,0.657c0.279,0.382,0.66,0.868,1.139,1.452c0.151,0.182,0.232,0.395,0.232,0.613
			c0,0.223-0.08,0.43-0.231,0.602c-0.212,0.293-0.63,0.75-1.251,1.361c-0.857,0.848-1.209,1.018-1.499,1.018
			c-0.19,0-0.386-0.062-0.58-0.188l-1.511-1.18c-0.208,0.098-0.42,0.187-0.635,0.265c-0.122,0.996-0.231,1.677-0.336,2.073
			C52.173,19.717,51.833,19.98,51.376,19.98z M46.665,15.832l0.266,0.137c0.312,0.159,0.664,0.305,1.047,0.428l0.278,0.093
			l0.392,2.571l2.729-0.031c0.02,0,0.027-0.002,0.028-0.002c0.059-0.377,0.176-1.131,0.305-2.232l0.036-0.306l0.294-0.093
			c0.357-0.112,0.712-0.261,1.052-0.438l0.272-0.143l1.951,1.526c0.002-0.002,0.18-0.059,0.86-0.731
			c0.576-0.567,0.973-0.998,1.179-1.28c-0.592-0.741-1.046-1.326-1.345-1.754l-0.167-0.24l0.139-0.258
			c0.151-0.281,0.304-0.638,0.453-1.062l0.095-0.27l2.577-0.391l-0.058-2.729l-2.519-0.367L56.44,7.979
			c-0.118-0.374-0.278-0.757-0.476-1.139L55.83,6.58L56,6.343c0.15-0.211,0.378-0.508,0.683-0.892
			c0.292-0.368,0.497-0.636,0.619-0.807c-0.265-0.396-0.931-1.081-1.97-2.041l-2,1.525l-0.265-0.137
			c-0.307-0.158-0.658-0.301-1.046-0.428l-0.278-0.091L51.352,0.9l-2.729,0.031c-0.056,0.265-0.174,0.876-0.332,2.235l-0.037,0.306
			L47.96,3.566c-0.353,0.111-0.707,0.259-1.053,0.438l-0.271,0.141l-1.951-1.513c0.021-0.026-0.188,0.055-0.867,0.725
			c-0.717,0.706-1.032,1.083-1.171,1.273c0.568,0.697,1.011,1.266,1.344,1.742l0.169,0.242l-0.14,0.258
			c-0.188,0.348-0.338,0.702-0.445,1.054l-0.088,0.287l-2.604,0.392l0.07,2.729l2.528,0.354l0.084,0.297
			c0.106,0.373,0.264,0.754,0.469,1.132l0.142,0.262l-0.174,0.242c-0.15,0.21-0.379,0.508-0.682,0.891
			c-0.292,0.368-0.498,0.636-0.618,0.806c0.284,0.434,0.951,1.108,1.964,2.026L46.665,15.832z M50,13.632
			c-1.001,0-1.869-0.36-2.58-1.067c-0.711-0.711-1.07-1.58-1.07-2.583c0-1.003,0.359-1.872,1.069-2.581
			c0.71-0.71,1.578-1.07,2.581-1.07c1.006,0,1.874,0.36,2.581,1.07c0.71,0.709,1.07,1.578,1.07,2.58c0,1.004-0.36,1.872-1.071,2.583
			C51.871,13.271,51.004,13.632,50,13.632z M50,7.282c-0.752,0-1.376,0.259-1.907,0.791c-0.532,0.531-0.791,1.155-0.791,1.908
			c0,0.753,0.259,1.376,0.791,1.908C48.626,12.421,49.25,12.68,50,12.68c0.752,0,1.376-0.259,1.906-0.791
			c0.533-0.533,0.793-1.156,0.793-1.908c0-0.751-0.26-1.375-0.793-1.908C51.377,7.541,50.753,7.282,50,7.282z"/>
	</g>
	<g>
		<path fill="#FFFFFF" d="M40,18.443c0,0.414-0.152,0.775-0.456,1.08c-0.305,0.307-0.666,0.457-1.081,0.457
			c-0.433,0-0.794-0.15-1.083-0.457l-4.123-4.109c-1.434,0.994-3.032,1.49-4.796,1.49c-1.145,0-2.24-0.223-3.286-0.668
			c-1.047-0.443-1.948-1.045-2.705-1.803c-0.757-0.758-1.358-1.658-1.802-2.705C20.223,10.684,20,9.588,20,8.443
			c0-1.146,0.223-2.242,0.668-3.288c0.443-1.045,1.045-1.948,1.802-2.705c0.757-0.757,1.658-1.358,2.705-1.802
			c1.046-0.445,2.142-0.668,3.286-0.668c1.146,0,2.242,0.223,3.288,0.668c1.045,0.443,1.948,1.045,2.705,1.802
			c0.757,0.757,1.358,1.66,1.802,2.705c0.445,1.046,0.668,2.142,0.668,3.288c0,1.762-0.498,3.36-1.49,4.796l4.123,4.122
			C39.853,17.658,40,18.018,40,18.443z M32.267,12.247c1.054-1.054,1.579-2.322,1.579-3.804c0-1.483-0.525-2.752-1.579-3.806
			c-1.054-1.054-2.322-1.579-3.806-1.579c-1.481,0-2.75,0.525-3.804,1.579c-1.054,1.054-1.581,2.322-1.581,3.806
			c0,1.481,0.527,2.75,1.581,3.804c1.054,1.054,2.322,1.581,3.804,1.581C29.944,13.828,31.213,13.301,32.267,12.247z"/>
	</g>
</g>
<path fill="#FFFFFF" d="M119.007,14.291c0.699-1.46,1.055-3.111,0.963-4.839c-0.289-5.512-4.989-9.746-10.501-9.458
	c-5.512,0.291-9.749,4.992-9.454,10.503c0.28,5.366,4.739,9.521,10.062,9.474l0.153,0.01l0.05-0.006
	c0.024-0.002,0.055-0.002,0.082-0.002c1.163-0.062,2.192-0.342,3.03-0.897c0.836-0.554,1.438-1.421,1.64-2.414
	c0.075-0.361,0.104-0.724,0.087-1.078c-0.037-0.729-0.282-1.431-0.715-2.007c-0.432-0.578-1.047-1.025-1.772-1.275
	c-0.749-0.262-1.481-0.279-2.146-0.246c-0.756,0.041-1.438,0.152-1.988,0.18c-0.314,0.019-0.581,0.006-0.773-0.032
	c-0.15-0.027-0.302-0.109-0.396-0.212c-0.096-0.104-0.146-0.209-0.156-0.362c-0.008-0.114,0.041-0.258,0.148-0.375
	c0.107-0.119,0.252-0.194,0.416-0.203c0.182-0.008,0.434,0.101,0.537,0.13c0.252,0.073,0.515,0.129,0.783,0.168
	c0.301,0.047,0.614,0.071,0.935,0.071c2.304,0,4.21-1.306,4.536-2.998c0.055-0.248,0.072-0.505,0.047-0.766
	c-0.014-0.148-0.043-0.297-0.084-0.443c-0.118-0.457-0.352-0.878-0.672-1.248c1.136,0.104,1.929-0.156,2.397-0.626
	c0.888,1.188,1.444,2.639,1.528,4.233c0.068,1.315-0.193,2.563-0.712,3.679l-1.406-0.744l1.032,3.344l3.341-1.033L119.007,14.291z
	 M109.987,9.656c-0.974,0-1.761-0.791-1.761-1.764c0-0.972,0.787-1.761,1.761-1.761c0.975,0,1.764,0.789,1.764,1.761
	C111.751,8.865,110.962,9.655,109.987,9.656z M113.756,4.493c-0.309,0.188-0.635,0.268-0.957,0.285
	c-0.473,0.022-0.758-0.022-0.855-0.054c-0.146-0.053-0.297-0.1-0.452-0.14c-0.026-0.008-0.054-0.015-0.081-0.021
	c-0.043-0.011-0.086-0.021-0.13-0.031c-0.044-0.009-0.089-0.019-0.134-0.028c-0.025-0.005-0.053-0.01-0.078-0.014
	c-0.146-0.029-0.297-0.051-0.452-0.066c-0.204-0.022-0.414-0.033-0.626-0.033c-2.533,0-4.59,1.572-4.588,3.511
	c0,0.323,0.058,0.635,0.164,0.932c0.08,0.241,0.188,0.471,0.33,0.686c-0.08,0.071-0.155,0.145-0.229,0.223
	c-0.477,0.522-0.766,1.231-0.729,2c0.037,0.702,0.338,1.334,0.771,1.782c0.434,0.453,0.99,0.748,1.592,0.865
	c0.457,0.086,0.896,0.09,1.312,0.067c0.721-0.041,1.396-0.149,1.989-0.183c0.521-0.026,0.961,0.007,1.293,0.125
	c0.336,0.119,0.562,0.295,0.723,0.507c0.156,0.215,0.255,0.473,0.271,0.786c0.008,0.154-0.004,0.322-0.041,0.502
	c-0.104,0.455-0.303,0.746-0.697,1.021c-0.396,0.268-1.029,0.477-1.904,0.521c-0.01,0-0.016,0.002-0.021,0.002l-0.113-0.006h-0.03
	c-4.142,0.053-7.623-3.183-7.841-7.357c-0.11-2.145,0.652-4.12,1.982-5.601c1.334-1.479,3.219-2.446,5.361-2.558
	c1.842-0.096,3.559,0.455,4.943,1.454C114.273,4.101,114.01,4.336,113.756,4.493z"/>
<path fill="#A7A9AC" d="M214.412,9.98c0,0.312-0.111,0.584-0.333,0.817l-5.858,5.852c-0.222,0.221-0.49,0.332-0.809,0.332
	c-0.316,0-0.587-0.111-0.809-0.332l-0.684-0.674c-0.222-0.234-0.333-0.508-0.333-0.817c0-0.318,0.111-0.589,0.333-0.81l4.367-4.368
	l-4.367-4.357c-0.222-0.234-0.333-0.507-0.333-0.818c0-0.317,0.111-0.587,0.333-0.809l0.684-0.674
	c0.215-0.228,0.483-0.342,0.809-0.342c0.322,0,0.594,0.114,0.809,0.342l5.858,5.85C214.301,9.394,214.412,9.663,214.412,9.98z"/>
<path fill="#F7520A" d="M234.412,9.98c0,0.312-0.111,0.584-0.333,0.817l-5.858,5.852c-0.222,0.221-0.49,0.332-0.809,0.332
	c-0.316,0-0.587-0.111-0.809-0.332l-0.684-0.674c-0.222-0.234-0.333-0.508-0.333-0.817c0-0.318,0.111-0.589,0.333-0.81l4.367-4.368
	l-4.367-4.357c-0.222-0.234-0.333-0.507-0.333-0.818c0-0.317,0.111-0.587,0.333-0.809l0.684-0.674
	c0.215-0.228,0.483-0.342,0.809-0.342c0.322,0,0.594,0.114,0.809,0.342l5.858,5.85C234.301,9.394,234.412,9.663,234.412,9.98z"/>
<path fill="#FFFFFF" d="M254.412,9.98c0,0.312-0.111,0.584-0.332,0.817l-5.859,5.852c-0.221,0.221-0.49,0.332-0.809,0.332
	c-0.316,0-0.586-0.111-0.809-0.332l-0.683-0.674c-0.224-0.234-0.334-0.508-0.334-0.817c0-0.318,0.11-0.589,0.334-0.81l4.367-4.368
	l-4.367-4.357c-0.224-0.234-0.334-0.507-0.334-0.818c0-0.317,0.11-0.587,0.334-0.809l0.683-0.674
	c0.217-0.228,0.483-0.342,0.809-0.342c0.324,0,0.594,0.114,0.809,0.342l5.859,5.85C254.301,9.394,254.412,9.663,254.412,9.98z"/>
<path fill="#A7A9AC" d="M133.224,13.252v-1.578c1.021,0,1.625-3.016,1.625-3.016c0-0.129,0-0.825,0-3.945
	c0-4.547-4.92-4.733-4.92-4.733s-4.918,0.186-4.918,4.733c0,3.12,0,3.815,0,3.945c0,0,0.603,3.016,1.623,3.016v1.578l-6.635,4.408
	v2.32h9.93h9.931v-2.32L133.224,13.252z"/>
<path fill="#FFFFFF" d="M153.363,13.252v-1.578c1.021,0,1.625-3.016,1.625-3.016c0-0.129,0-0.825,0-3.945
	c0-4.547-4.92-4.733-4.92-4.733s-4.918,0.186-4.918,4.733c0,3.12,0,3.815,0,3.945c0,0,0.603,3.016,1.623,3.016v1.578l-6.635,4.408
	v2.32h9.93h9.931v-2.32L153.363,13.252z"/>
<polygon fill="#A7A9AC" points="169.999,0 159.999,9.809 162.972,9.809 162.972,19.98 167.6,19.98 167.6,14.036 169.999,14.036 
	172.398,14.036 172.398,19.98 177.026,19.98 177.026,9.809 179.999,9.809 "/>
<polygon fill="#FFFFFF" points="189.999,0 179.999,9.809 182.973,9.809 182.973,19.98 187.6,19.98 187.6,14.036 189.999,14.036 
	192.398,14.036 192.398,19.98 197.025,19.98 197.025,9.809 199.999,9.809 "/>
<path fill="#A7A9AC" d="M279.999,15.795c0,0.258-0.048,0.591-0.144,1.003c-0.094,0.412-0.192,0.735-0.299,0.972
	c-0.199,0.476-0.777,0.977-1.731,1.506c-0.892,0.482-1.771,0.726-2.644,0.726c-0.255,0-0.504-0.017-0.746-0.049
	c-0.24-0.033-0.514-0.095-0.815-0.179c-0.302-0.086-0.527-0.153-0.675-0.205c-0.148-0.053-0.41-0.149-0.787-0.293
	c-0.379-0.141-0.611-0.226-0.696-0.254c-0.928-0.332-1.757-0.726-2.485-1.18c-1.213-0.748-2.466-1.769-3.758-3.062
	c-1.293-1.291-2.312-2.543-3.062-3.758c-0.454-0.729-0.849-1.558-1.179-2.484c-0.029-0.085-0.115-0.317-0.256-0.696
	c-0.143-0.377-0.24-0.64-0.291-0.787c-0.053-0.146-0.121-0.373-0.205-0.675c-0.086-0.303-0.146-0.576-0.18-0.816
	c-0.033-0.242-0.049-0.491-0.049-0.746c0-0.872,0.242-1.752,0.725-2.643c0.53-0.955,1.031-1.533,1.506-1.732
	c0.236-0.105,0.561-0.205,0.973-0.298C263.613,0.048,263.945,0,264.204,0c0.132,0,0.231,0.015,0.298,0.044
	c0.17,0.056,0.421,0.416,0.752,1.079c0.104,0.181,0.246,0.436,0.428,0.767c0.18,0.331,0.346,0.632,0.496,0.903
	c0.151,0.27,0.299,0.521,0.439,0.758c0.027,0.039,0.111,0.157,0.248,0.356c0.139,0.199,0.24,0.366,0.307,0.503
	c0.066,0.14,0.1,0.273,0.1,0.406c0,0.188-0.135,0.425-0.405,0.711c-0.269,0.283-0.563,0.545-0.88,0.781
	c-0.317,0.235-0.611,0.486-0.881,0.752c-0.271,0.265-0.403,0.482-0.403,0.654c0,0.085,0.022,0.19,0.069,0.318
	c0.049,0.129,0.088,0.227,0.121,0.29c0.032,0.066,0.1,0.181,0.197,0.342c0.1,0.162,0.155,0.251,0.164,0.27
	c0.719,1.299,1.543,2.412,2.473,3.339c0.928,0.929,2.039,1.752,3.338,2.472c0.02,0.009,0.107,0.063,0.271,0.164
	c0.161,0.099,0.274,0.165,0.342,0.198c0.063,0.033,0.161,0.072,0.29,0.119c0.128,0.049,0.233,0.07,0.318,0.07
	c0.172,0,0.39-0.134,0.654-0.402c0.266-0.271,0.517-0.563,0.752-0.881c0.235-0.316,0.498-0.611,0.781-0.881
	c0.285-0.271,0.521-0.406,0.711-0.406c0.133,0,0.267,0.033,0.405,0.101c0.138,0.065,0.304,0.168,0.503,0.307
	c0.199,0.138,0.317,0.22,0.355,0.248c0.236,0.142,0.488,0.288,0.759,0.438c0.271,0.152,0.571,0.318,0.903,0.498
	c0.33,0.181,0.586,0.322,0.767,0.427c0.663,0.331,1.022,0.582,1.079,0.752C279.984,15.562,279.999,15.663,279.999,15.795z"/>
<path fill="#FFFFFF" d="M299.999,15.795c0,0.258-0.048,0.591-0.144,1.003c-0.094,0.412-0.192,0.735-0.299,0.972
	c-0.199,0.476-0.777,0.977-1.731,1.506c-0.892,0.482-1.771,0.726-2.644,0.726c-0.255,0-0.504-0.017-0.746-0.049
	c-0.24-0.033-0.514-0.095-0.815-0.179c-0.302-0.086-0.527-0.153-0.675-0.205c-0.148-0.053-0.41-0.149-0.787-0.293
	c-0.379-0.141-0.611-0.226-0.696-0.254c-0.928-0.332-1.757-0.726-2.485-1.18c-1.213-0.748-2.466-1.769-3.758-3.062
	c-1.293-1.291-2.312-2.543-3.062-3.758c-0.454-0.729-0.849-1.558-1.179-2.484c-0.029-0.085-0.115-0.317-0.256-0.696
	c-0.143-0.377-0.24-0.64-0.291-0.787c-0.053-0.146-0.121-0.373-0.205-0.675c-0.086-0.303-0.146-0.576-0.18-0.816
	c-0.033-0.242-0.049-0.491-0.049-0.746c0-0.872,0.242-1.752,0.725-2.643c0.53-0.955,1.031-1.533,1.506-1.732
	c0.236-0.105,0.561-0.205,0.973-0.298C283.613,0.048,283.945,0,284.204,0c0.132,0,0.231,0.015,0.298,0.044
	c0.17,0.056,0.421,0.416,0.752,1.079c0.104,0.181,0.246,0.436,0.428,0.767c0.18,0.331,0.346,0.632,0.496,0.903
	c0.151,0.27,0.299,0.521,0.439,0.758c0.027,0.039,0.111,0.157,0.248,0.356c0.139,0.199,0.24,0.366,0.307,0.503
	c0.066,0.14,0.1,0.273,0.1,0.406c0,0.188-0.135,0.425-0.405,0.711c-0.269,0.283-0.563,0.545-0.88,0.781
	c-0.317,0.235-0.611,0.486-0.881,0.752c-0.271,0.265-0.403,0.482-0.403,0.654c0,0.085,0.022,0.19,0.069,0.318
	c0.049,0.129,0.088,0.227,0.121,0.29c0.032,0.066,0.1,0.181,0.197,0.342c0.1,0.162,0.155,0.251,0.164,0.27
	c0.719,1.299,1.543,2.412,2.473,3.339c0.928,0.929,2.039,1.752,3.338,2.472c0.02,0.009,0.107,0.063,0.271,0.164
	c0.161,0.099,0.274,0.165,0.342,0.198c0.063,0.033,0.161,0.072,0.29,0.119c0.128,0.049,0.233,0.07,0.318,0.07
	c0.172,0,0.39-0.134,0.654-0.402c0.266-0.271,0.517-0.563,0.752-0.881c0.235-0.316,0.498-0.611,0.781-0.881
	c0.285-0.271,0.521-0.406,0.711-0.406c0.133,0,0.267,0.033,0.405,0.101c0.138,0.065,0.304,0.168,0.503,0.307
	c0.199,0.138,0.317,0.22,0.355,0.248c0.236,0.142,0.488,0.288,0.759,0.438c0.271,0.152,0.571,0.318,0.903,0.498
	c0.33,0.181,0.586,0.322,0.767,0.427c0.663,0.331,1.022,0.582,1.079,0.752C299.984,15.562,299.999,15.663,299.999,15.795z"/>
<g>
	<g>
		<polygon fill="#A7A9AC" points="302.391,7.503 302.391,13.241 302.391,19.01 308.091,13.123 		"/>
		<polygon fill="#A7A9AC" points="310.948,14.068 309.999,15.004 309.05,14.068 303.309,20 309.999,20 316.69,20 		"/>
		<polygon fill="#A7A9AC" points="317.608,7.503 317.608,13.241 317.608,19.01 311.907,13.123 		"/>
	</g>
	<path fill="#A7A9AC" d="M310.486,0.479L309.999,0l-0.487,0.479l-6.15,6.066l6.15,6.064l0.487,0.48l0.487-0.48l6.15-6.064
		L310.486,0.479z M309.999,10.125l-3.131-3.11h2.398V2.967h0.731h0.73v4.048h2.399L309.999,10.125z"/>
</g>
<g>
	<g>
		<polygon fill="#FFFFFF" points="322.391,7.503 322.391,13.241 322.391,19.01 328.091,13.123 		"/>
		<polygon fill="#FFFFFF" points="330.948,14.068 329.999,15.004 329.05,14.068 323.308,20 329.999,20 336.69,20 		"/>
		<polygon fill="#FFFFFF" points="337.608,7.503 337.608,13.241 337.608,19.01 331.907,13.123 		"/>
	</g>
	<path fill="#FFFFFF" d="M330.486,0.479L329.999,0l-0.487,0.479l-6.15,6.066l6.15,6.064l0.487,0.48l0.487-0.48l6.15-6.064
		L330.486,0.479z M329.999,10.125l-3.131-3.11h2.398V2.967h0.731h0.73v4.048h2.399L329.999,10.125z"/>
</g>
<g>
	<path fill="#FFFFFF" d="M100,3.832V4.5c0,0.226-0.082,0.42-0.246,0.586c-0.166,0.164-0.361,0.248-0.588,0.248H80.834
		c-0.227,0-0.422-0.084-0.586-0.248C80.083,4.92,80,4.727,80,4.5V3.832c0-0.225,0.083-0.42,0.248-0.586
		C80.412,3.082,80.607,3,80.834,3h18.332c0.227,0,0.422,0.082,0.588,0.246C99.918,3.412,100,3.607,100,3.832z"/>
	<path fill="#FFFFFF" d="M100,9.666v0.668c0,0.225-0.082,0.42-0.246,0.586c-0.166,0.164-0.361,0.246-0.588,0.246H80.834
		c-0.227,0-0.422-0.082-0.586-0.246C80.083,10.754,80,10.559,80,10.334V9.666c0-0.226,0.083-0.42,0.248-0.586
		c0.164-0.164,0.359-0.248,0.586-0.248h18.332c0.227,0,0.422,0.084,0.588,0.248C99.918,9.246,100,9.441,100,9.666z"/>
	<path fill="#FFFFFF" d="M100,15.5v0.666c0,0.227-0.082,0.422-0.246,0.586C99.588,16.916,99.393,17,99.166,17H80.834
		c-0.227,0-0.422-0.084-0.586-0.248C80.083,16.588,80,16.393,80,16.166V15.5c0-0.229,0.083-0.422,0.248-0.586
		c0.164-0.166,0.359-0.248,0.586-0.248h18.332c0.227,0,0.422,0.082,0.588,0.248C99.918,15.08,100,15.273,100,15.5z"/>
</g>
<path fill="#FFFFFF" d="M360,1.808v0.676c0,0.229-0.082,0.425-0.246,0.593c-0.166,0.166-0.361,0.251-0.588,0.251h-3.332
	c-0.227,0-0.422-0.085-0.586-0.251C355.083,2.908,355,2.713,355,2.484V1.808c0-0.228,0.083-0.425,0.248-0.593
	c0.164-0.166,0.359-0.249,0.586-0.249h3.332c0.227,0,0.422,0.083,0.588,0.249C359.918,1.383,360,1.581,360,1.808z"/>
<path fill="#FFFFFF" d="M360,5.712v0.676c0,0.228-0.082,0.425-0.246,0.593c-0.166,0.166-0.361,0.249-0.588,0.249h-3.332
	c-0.227,0-0.422-0.083-0.586-0.249C355.083,6.813,355,6.615,355,6.388V5.712c0-0.229,0.083-0.425,0.248-0.593
	c0.164-0.166,0.359-0.251,0.586-0.251h3.332c0.227,0,0.422,0.085,0.588,0.251C359.918,5.287,360,5.485,360,5.712z"/>
<path fill="#FFFFFF" d="M360,9.615v0.674c0,0.229-0.082,0.426-0.246,0.592c-0.166,0.166-0.361,0.252-0.588,0.252h-3.332
	c-0.227,0-0.422-0.086-0.586-0.252c-0.165-0.166-0.248-0.363-0.248-0.592V9.615c0-0.23,0.083-0.428,0.248-0.594
	c0.164-0.168,0.359-0.25,0.586-0.25h3.332c0.227,0,0.422,0.082,0.588,0.25C359.918,9.191,360,9.385,360,9.615z"/>
<path fill="#FFFFFF" d="M352.391,11.023l-3.616,3.74l-3.614-3.74c0,0-5.11-0.998-5.11,8.977h8.725h8.725
	C357.499,10.026,352.391,11.023,352.391,11.023z"/>
<ellipse fill="#FFFFFF" cx="348.774" cy="5.585" rx="4.821" ry="5.575"/>
</svg>
