<svg width="140" height="32" viewBox="0 0 140 32" fill="none" xmlns="http://www.w3.org/2000/svg">
<g clipPath="url(#clip0_1457_90733)">
<path d="M21.5362 7.46281C20.9045 7.74637 19.6394 7.76919 19.1275 7.59733C18.1856 7.25689 17.129 7.064 16.0134 7.064C11.976 7.064 8.70315 9.57837 8.70315 12.68C8.70315 13.6059 8.99657 14.4785 9.51307 15.2483C9.1986 15.5016 7.96937 16.6234 7.96937 18.6986C7.96937 20.5499 9.31505 22.4083 11.3358 22.9544C13.4089 23.5143 15.8869 22.8435 17.6881 22.8435C19.5191 22.8435 20.6332 23.8065 20.6332 25.2435C20.6332 27.3354 18.4566 28.4287 16.0282 28.4287C9.2032 28.4367 3.65082 22.8577 3.65082 16C3.65082 9.14193 9.20379 3.56267 16.0291 3.56267C18.7226 3.56267 21.2156 4.43407 23.2495 5.90726C22.747 6.77215 22.2525 7.14133 21.5362 7.46281ZM16.0117 15.499C14.4629 15.4984 13.209 14.235 13.2082 12.6782C13.2089 11.1233 14.4629 9.86104 16.0117 9.86104C17.5631 9.86104 18.8184 11.1227 18.8184 12.6782C18.8184 14.235 17.5631 15.4984 16.0117 15.499ZM31.9532 16C31.9532 7.16356 24.8239 0 16.0291 0C7.23459 0 0.105103 7.16356 0.105103 16C0.105103 24.8364 7.23459 32 16.0291 32C20.7193 31.9911 24.1887 29.5111 24.1887 25.2435C24.1887 21.5799 21.435 19.2889 17.8804 19.2889C15.5953 19.2889 13.5844 19.7899 12.4059 19.5443C11.7825 19.4142 11.5225 19.0137 11.5225 18.576C11.5225 18.1247 11.912 17.6868 12.4049 17.6868C12.572 17.6868 12.8035 17.7422 13.0131 17.8009C13.9288 18.1179 14.9436 18.296 16.0134 18.296C20.0508 18.296 23.3235 15.7816 23.3235 12.68C23.3235 11.531 22.8735 10.4631 22.103 9.57333C23.9174 9.74637 25.1934 9.32237 25.9419 8.55882C27.4897 10.6353 28.4077 13.2119 28.4077 16C28.4077 18.1034 27.882 20.0841 26.9607 21.8228L25.1159 20.8401L26.7192 26.0895L31.9444 24.4771L30.0993 23.4945C31.2818 21.2587 31.9532 18.7087 31.9532 16Z" fill="#513394"/>
<path d="M71.6376 16.898L71.4217 18.0195C71.3769 18.2539 71.325 18.4243 71.2445 18.5988C70.9696 19.2847 70.3294 19.7457 69.6515 19.7457C68.6347 19.7457 68.1652 18.9027 68.4259 17.5466C68.6273 16.4995 69.2985 15.277 70.5279 15.277C71.3096 15.277 71.6753 15.8714 71.6906 16.4456C71.6821 16.5754 71.6638 16.7623 71.6376 16.898ZM72.2672 13.6225C71.8805 13.1656 71.1822 12.9099 70.2852 12.9099C69.2693 12.9099 68.2407 13.3069 67.3891 14.0281C66.3587 14.9004 65.6675 16.1475 65.3909 17.6343C64.8822 20.2799 66.116 22.2003 68.3247 22.2003C69.3878 22.2003 70.4067 21.7638 71.1318 21.0144L71.0372 22.007H73.6015L73.6248 21.8305C73.7006 21.2571 73.8602 20.2465 74.0456 19.2814L75.8377 9.99285H72.9714L72.2672 13.6225Z" fill="#513394"/>
<path d="M125.392 13.4786C124.571 12.9571 124.011 12.8958 123.348 12.8958C122.574 12.8958 121.559 13.3293 120.841 14.2837L121.005 13.0893H118.385L118.36 13.2641C118.252 14.0081 118.126 14.8389 117.887 16.0822L116.741 22.0063H119.736L120.605 17.4863C120.645 17.281 120.701 17.081 120.762 16.9239C121.07 16.1607 121.776 15.7053 122.65 15.7053C122.931 15.7053 123.139 15.7376 123.324 15.7728C123.324 15.7728 123.395 15.7817 123.513 15.8087C123.876 14.8226 124.884 13.8268 125.392 13.4786Z" fill="#513394"/>
<path d="M137.301 16.4494C136.289 16.0672 136.14 15.8859 136.191 15.6237C136.28 15.1579 136.877 14.9703 137.193 14.9703C137.727 14.9703 138.352 15.0118 138.917 15.3413L139.072 15.424L139.969 13.48L139.86 13.4195C139.417 13.1736 138.557 12.9105 137.472 12.9105C135.327 12.9105 133.593 14.1345 133.256 15.8841C133.077 16.7383 133.282 17.9075 135.272 18.6269C136.237 18.9724 136.373 19.1629 136.315 19.463C136.289 19.5994 136.152 19.9975 135.182 20.0047C134.563 20.0089 133.613 19.9217 133.096 19.6275L132.88 19.535L131.964 21.3519C132.753 21.7813 133.882 22.2003 134.76 22.2003C137.148 22.2003 138.848 21.0731 139.197 19.2562C139.441 17.8909 138.856 17.0249 137.301 16.4494Z" fill="#513394"/>
<path d="M59.3665 16.7019L59.9126 15.5182L61.1744 12.7632L61.4466 16.7019H59.3665ZM59.7604 9.99286L56.4001 16.7019H53.6957L52.5356 19.008H55.245L53.7429 22.007H56.9177L58.3019 19.008H61.4743L61.7259 22.007H64.799L63.4543 9.99286H59.7604Z" fill="#513394"/>
<path d="M106.299 13.0889L106.939 9.99285L103.773 10.6809L102.17 18.7339C101.925 19.9757 102.001 20.8474 102.422 21.3994C102.808 21.9084 103.527 22.2003 104.396 22.2003C105.148 22.2003 105.815 22.1128 106.224 21.9599L106.372 21.9054L106.828 19.4832L106.536 19.5342C106.285 19.5781 106.042 19.5994 105.792 19.5994C105.53 19.5994 105.38 19.5523 105.289 19.4408C105.154 19.2744 105.169 18.9215 105.279 18.3623L105.837 15.4767H107.698L108.159 13.0889H106.299Z" fill="#513394"/>
<path d="M101.078 13.6767C100.662 13.1656 100.016 12.9066 99.1583 12.9066C98.0103 12.9066 97.1422 13.4154 96.6158 13.8423L96.5117 13.9268L96.6547 13.0966H93.9626L93.9278 13.3274C93.8181 14.0566 93.6772 14.946 93.4675 16.0109L92.3033 22.007H95.269L96.2613 16.8986C96.4394 15.981 96.9523 15.4954 97.7446 15.4954C98.0392 15.4954 98.2501 15.5783 98.389 15.7484C98.5945 16.0009 98.6352 16.4494 98.5111 17.0817L97.558 22.007H100.464L101.476 16.7783C101.751 15.3819 101.617 14.3383 101.078 13.6767Z" fill="#513394"/>
<path d="M82.3885 13.0892L79.4257 18.3946L79.4183 18.3466L78.5894 13.0892H75.8378L77.311 22.007H80.1871L85.2481 13.0892H82.3885Z" fill="#513394"/>
<path d="M44.3063 17.1463H46.4063L46.0217 19.1407C45.8065 19.2272 45.2155 19.4352 44.6098 19.4115C43.2795 19.3552 42.4134 19.0326 41.9625 18.4243C41.5364 17.8497 41.4739 16.9997 41.7715 15.826C42.3273 13.6334 44.0433 12.2924 46.3617 12.2388C47.2559 12.2174 48.5672 12.4254 49.8957 12.9173C49.8957 12.9173 50.4068 10.282 50.4487 10.0666C49.899 9.76766 48.5324 9.40085 46.9318 9.40085C42.6576 9.40085 39.3489 11.9558 38.5026 15.9093C38.0944 17.7665 38.3855 19.3931 39.3206 20.4873C40.2519 21.6245 41.734 22.2003 43.7292 22.2003C43.8274 22.2003 43.9271 22.1988 44.0283 22.1961C46.636 22.1238 48.4717 21.0581 48.5487 21.0127L48.6003 20.9819L49.8073 14.7641L45.5057 14.7614L44.3063 17.1463Z" fill="#513394"/>
<path d="M108.615 21.427C109.032 21.9387 109.678 22.1979 110.537 22.1979C111.686 22.1979 112.555 21.6885 113.082 21.2613L113.186 21.1766L113.043 22.0078H115.737L115.772 21.7766C115.882 21.0465 116.023 20.1565 116.232 19.0906L117.398 13.0889H114.429L113.436 18.2021C113.258 19.1208 112.745 19.6065 111.952 19.6065C111.657 19.6065 111.446 19.5239 111.307 19.3533C111.101 19.1007 111.06 18.6519 111.185 18.0187L112.139 13.0889H109.229L108.217 18.3227C107.941 19.7206 108.075 20.7647 108.615 21.427Z" fill="#513394"/>
<path d="M90.1371 16.4589H86.967C87.2354 15.7848 87.9089 14.8186 88.9413 14.8186C90.1097 14.8186 90.2312 15.9357 90.1371 16.4589ZM89.281 12.9066C87.1354 12.9066 84.5427 14.3715 83.9193 17.5884C83.7441 18.4919 83.7235 19.5078 84.1759 20.3383C85.177 22.1747 87.8994 22.4139 89.7148 21.9004C90.2123 21.7593 90.69 21.5534 91.1365 21.2932C91.1365 21.2932 90.2214 19.3363 90.222 19.3276C88.4515 20.3016 86.384 19.9093 86.4775 18.4978H92.0338L92.0848 18.3623C92.1739 18.1247 92.2986 17.7197 92.3812 17.2945C92.7923 15.173 92.1937 12.9066 89.281 12.9066Z" fill="#513394"/>
<path d="M130.125 16.4863H126.934C127.204 15.8075 127.882 14.835 128.921 14.835C130.097 14.835 130.22 15.9595 130.125 16.4863ZM129.263 12.9106C127.104 12.9106 124.494 14.3853 123.866 17.6232C123.69 18.5325 123.669 19.555 124.125 20.3909C125.132 22.2392 127.873 22.48 129.699 21.963C130.2 21.8211 130.681 21.614 131.131 21.352C131.131 21.352 130.21 19.3822 130.21 19.374C128.428 20.3536 126.347 19.9589 126.441 18.5381H132.034L132.085 18.4016C132.175 18.1627 132.301 17.755 132.384 17.3272C132.797 15.1918 132.195 12.9106 129.263 12.9106Z" fill="#513394"/>
</g>
<defs>
<clipPath id="clip0_1457_90733">
<rect width="140" height="32" fill="white"/>
</clipPath>
</defs>
</svg>
